  0
SECTION
  2
HEADER
  9
$ACADVER
  1
AC1024
  9
$ACADMAINTVER
 70
     6
  9
$DWGCODEPAGE
  3
ANSI_1252
  9
$INSBASE
 10
0.0
 20
0.0
 30
0.0
  9
$EXTMIN
 10
1.000000000000000E+20
 20
1.000000000000000E+20
 30
1.000000000000000E+20
  9
$EXTMAX
 10
-1.000000000000000E+20
 20
-1.000000000000000E+20
 30
-1.000000000000000E+20
  9
$LIMMIN
 10
0.0
 20
0.0
  9
$LIMMAX
 10
12.0
 20
9.0
  9
$ORTHOMODE
 70
     0
  9
$REGENMODE
 70
     1
  9
$FILLMODE
 70
     1
  9
$QTEXTMODE
 70
     0
  9
$MIRRTEXT
 70
     1
  9
$LTSCALE
 40
1.0
  9
$ATTMODE
 70
     1
  9
$TEXTSIZE
 40
0.2
  9
$TRACEWID
 40
0.05
  9
$TEXTSTYLE
  7
Standard
  9
$CLAYER
  8
0
  9
$CELTYPE
  6
ByLayer
  9
$CECOLOR
 62
   256
  9
$CELTSCALE
 40
1.0
  9
$DISPSILH
 70
     0
  9
$DIMSCALE
 40
1.0
  9
$DIMASZ
 40
0.18
  9
$DIMEXO
 40
0.0625
  9
$DIMDLI
 40
0.38
  9
$DIMRND
 40
0.0
  9
$DIMDLE
 40
0.0
  9
$DIMEXE
 40
0.18
  9
$DIMTP
 40
0.0
  9
$DIMTM
 40
0.0
  9
$DIMTXT
 40
0.18
  9
$DIMCEN
 40
0.09
  9
$DIMTSZ
 40
0.0
  9
$DIMTOL
 70
     0
  9
$DIMLIM
 70
     0
  9
$DIMTIH
 70
     1
  9
$DIMTOH
 70
     1
  9
$DIMSE1
 70
     0
  9
$DIMSE2
 70
     0
  9
$DIMTAD
 70
     0
  9
$DIMZIN
 70
     0
  9
$DIMBLK
  1

  9
$DIMASO
 70
     1
  9
$DIMSHO
 70
     1
  9
$DIMPOST
  1

  9
$DIMAPOST
  1

  9
$DIMALT
 70
     0
  9
$DIMALTD
 70
     2
  9
$DIMALTF
 40
25.4
  9
$DIMLFAC
 40
1.0
  9
$DIMTOFL
 70
     0
  9
$DIMTVP
 40
0.0
  9
$DIMTIX
 70
     0
  9
$DIMSOXD
 70
     0
  9
$DIMSAH
 70
     0
  9
$DIMBLK1
  1

  9
$DIMBLK2
  1

  9
$DIMSTYLE
  2
Standard
  9
$DIMCLRD
 70
     0
  9
$DIMCLRE
 70
     0
  9
$DIMCLRT
 70
     0
  9
$DIMTFAC
 40
1.0
  9
$DIMGAP
 40
0.09
  9
$DIMJUST
 70
     0
  9
$DIMSD1
 70
     0
  9
$DIMSD2
 70
     0
  9
$DIMTOLJ
 70
     1
  9
$DIMTZIN
 70
     0
  9
$DIMALTZ
 70
     0
  9
$DIMALTTZ
 70
     0
  9
$DIMUPT
 70
     0
  9
$DIMDEC
 70
     4
  9
$DIMTDEC
 70
     4
  9
$DIMALTU
 70
     2
  9
$DIMALTTD
 70
     2
  9
$DIMTXSTY
  7
Standard
  9
$DIMAUNIT
 70
     0
  9
$DIMADEC
 70
     0
  9
$DIMALTRND
 40
0.0
  9
$DIMAZIN
 70
     0
  9
$DIMDSEP
 70
    46
  9
$DIMATFIT
 70
     3
  9
$DIMFRAC
 70
     0
  9
$DIMLDRBLK
  1

  9
$DIMLUNIT
 70
     2
  9
$DIMLWD
 70
    -2
  9
$DIMLWE
 70
    -2
  9
$DIMTMOVE
 70
     0
  9
$DIMFXL
 40
1.0
  9
$DIMFXLON
 70
     0
  9
$DIMJOGANG
 40
0.7853981633974483
  9
$DIMTFILL
 70
     0
  9
$DIMTFILLCLR
 70
     0
  9
$DIMARCSYM
 70
     0
  9
$DIMLTYPE
  6

  9
$DIMLTEX1
  6

  9
$DIMLTEX2
  6

  9
$DIMTXTDIRECTION
 70
     0
  9
$LUNITS
 70
     2
  9
$LUPREC
 70
     4
  9
$SKETCHINC
 40
0.1
  9
$FILLETRAD
 40
0.5
  9
$AUNITS
 70
     0
  9
$AUPREC
 70
     0
  9
$MENU
  1
.
  9
$ELEVATION
 40
0.0
  9
$PELEVATION
 40
0.0
  9
$THICKNESS
 40
0.0
  9
$LIMCHECK
 70
     0
  9
$CHAMFERA
 40
0.5
  9
$CHAMFERB
 40
0.5
  9
$CHAMFERC
 40
1.0
  9
$CHAMFERD
 40
0.0
  9
$SKPOLY
 70
     0
  9
$TDCREATE
 40
2457790.256105648
  9
$TDUCREATE
 40
2457790.464438981
  9
$TDUPDATE
 40
2457790.256105683
  9
$TDUUPDATE
 40
2457790.464439016
  9
$TDINDWG
 40
0.0000000116
  9
$TDUSRTIMER
 40
0.0000000116
  9
$USRTIMER
 70
     1
  9
$ANGBASE
 50
0.0
  9
$ANGDIR
 70
     0
  9
$PDMODE
 70
     0
  9
$PDSIZE
 40
0.0
  9
$PLINEWID
 40
0.0
  9
$SPLFRAME
 70
     0
  9
$SPLINETYPE
 70
     6
  9
$SPLINESEGS
 70
     8
  9
$HANDSEED
  5
102
  9
$SURFTAB1
 70
     6
  9
$SURFTAB2
 70
     6
  9
$SURFTYPE
 70
     6
  9
$SURFU
 70
     6
  9
$SURFV
 70
     6
  9
$UCSBASE
  2

  9
$UCSNAME
  2

  9
$UCSORG
 10
0.0
 20
0.0
 30
0.0
  9
$UCSXDIR
 10
1.0
 20
0.0
 30
0.0
  9
$UCSYDIR
 10
0.0
 20
1.0
 30
0.0
  9
$UCSORTHOREF
  2

  9
$UCSORTHOVIEW
 70
     0
  9
$UCSORGTOP
 10
0.0
 20
0.0
 30
0.0
  9
$UCSORGBOTTOM
 10
0.0
 20
0.0
 30
0.0
  9
$UCSORGLEFT
 10
0.0
 20
0.0
 30
0.0
  9
$UCSORGRIGHT
 10
0.0
 20
0.0
 30
0.0
  9
$UCSORGFRONT
 10
0.0
 20
0.0
 30
0.0
  9
$UCSORGBACK
 10
0.0
 20
0.0
 30
0.0
  9
$PUCSBASE
  2

  9
$PUCSNAME
  2

  9
$PUCSORG
 10
0.0
 20
0.0
 30
0.0
  9
$PUCSXDIR
 10
1.0
 20
0.0
 30
0.0
  9
$PUCSYDIR
 10
0.0
 20
1.0
 30
0.0
  9
$PUCSORTHOREF
  2

  9
$PUCSORTHOVIEW
 70
     0
  9
$PUCSORGTOP
 10
0.0
 20
0.0
 30
0.0
  9
$PUCSORGBOTTOM
 10
0.0
 20
0.0
 30
0.0
  9
$PUCSORGLEFT
 10
0.0
 20
0.0
 30
0.0
  9
$PUCSORGRIGHT
 10
0.0
 20
0.0
 30
0.0
  9
$PUCSORGFRONT
 10
0.0
 20
0.0
 30
0.0
  9
$PUCSORGBACK
 10
0.0
 20
0.0
 30
0.0
  9
$USERI1
 70
     0
  9
$USERI2
 70
     0
  9
$USERI3
 70
     0
  9
$USERI4
 70
     0
  9
$USERI5
 70
     0
  9
$USERR1
 40
0.0
  9
$USERR2
 40
0.0
  9
$USERR3
 40
0.0
  9
$USERR4
 40
0.0
  9
$USERR5
 40
0.0
  9
$WORLDVIEW
 70
     1
  9
$SHADEDGE
 70
     3
  9
$SHADEDIF
 70
    70
  9
$TILEMODE
 70
     1
  9
$MAXACTVP
 70
    64
  9
$PINSBASE
 10
0.0
 20
0.0
 30
0.0
  9
$PLIMCHECK
 70
     0
  9
$PEXTMIN
 10
1.000000000000000E+20
 20
1.000000000000000E+20
 30
1.000000000000000E+20
  9
$PEXTMAX
 10
-1.000000000000000E+20
 20
-1.000000000000000E+20
 30
-1.000000000000000E+20
  9
$PLIMMIN
 10
0.0
 20
0.0
  9
$PLIMMAX
 10
12.0
 20
9.0
  9
$UNITMODE
 70
     0
  9
$VISRETAIN
 70
     1
  9
$PLINEGEN
 70
     0
  9
$PSLTSCALE
 70
     1
  9
$TREEDEPTH
 70
  3020
  9
$CMLSTYLE
  2
Standard
  9
$CMLJUST
 70
     0
  9
$CMLSCALE
 40
1.0
  9
$PROXYGRAPHICS
 70
     1
  9
$MEASUREMENT
 70
     0
  9
$CELWEIGHT
370
    -1
  9
$ENDCAPS
280
     0
  9
$JOINSTYLE
280
     0
  9
$LWDISPLAY
290
     1
  9
$INSUNITS
 70
     1
  9
$HYPERLINKBASE
  1

  9
$STYLESHEET
  1

  9
$XEDIT
290
     1
  9
$CEPSNTYPE
380
     0
  9
$PSTYLEMODE
290
     1
  9
$FINGERPRINTGUID
  2
{7A6699FB-4D56-4154-B2D0-81AB196552A5}
  9
$VERSIONGUID
  2
{FAEB1C32-E019-11D5-929B-00C0DF256EC4}
  9
$EXTNAMES
290
     1
  9
$PSVPSCALE
 40
0.0
  9
$OLESTARTUP
290
     0
  9
$SORTENTS
280
   127
  9
$INDEXCTL
280
     0
  9
$HIDETEXT
280
     1
  9
$XCLIPFRAME
280
     2
  9
$HALOGAP
280
     0
  9
$OBSCOLOR
 70
   257
  9
$OBSLTYPE
280
     0
  9
$INTERSECTIONDISPLAY
280
     0
  9
$INTERSECTIONCOLOR
 70
   257
  9
$DIMASSOC
280
     2
  9
$PROJECTNAME
  1

  9
$CAMERADISPLAY
290
     0
  9
$LENSLENGTH
 40
50.0
  9
$CAMERAHEIGHT
 40
0.0
  9
$STEPSPERSEC
 40
2.0
  9
$STEPSIZE
 40
6.0
  9
$3DDWFPREC
 40
2.0
  9
$PSOLWIDTH
 40
0.25
  9
$PSOLHEIGHT
 40
4.0
  9
$LOFTANG1
 40
1.570796326794897
  9
$LOFTANG2
 40
1.570796326794897
  9
$LOFTMAG1
 40
0.0
  9
$LOFTMAG2
 40
0.0
  9
$LOFTPARAM
 70
     7
  9
$LOFTNORMALS
280
     1
  9
$LATITUDE
 40
37.795
  9
$LONGITUDE
 40
-122.394
  9
$NORTHDIRECTION
 40
0.0
  9
$TIMEZONE
 70
 -8000
  9
$LIGHTGLYPHDISPLAY
280
     1
  9
$TILEMODELIGHTSYNCH
280
     1
  9
$CMATERIAL
347
3C
  9
$SOLIDHIST
280
     1
  9
$SHOWHIST
280
     1
  9
$DWFFRAME
280
     2
  9
$DGNFRAME
280
     2
  9
$REALWORLDSCALE
290
     1
  9
$INTERFERECOLOR
 62
   256
  9
$CSHADOW
280
     0
  9
$SHADOWPLANELOCATION
 40
0.0
  0
ENDSEC
  0
SECTION
  2
CLASSES
  0
CLASS
  1
ACDBDICTIONARYWDFLT
  2
AcDbDictionaryWithDefault
  3
ObjectDBX Classes
 90
        0
 91
        4
280
     0
281
     0
  0
CLASS
  1
VISUALSTYLE
  2
AcDbVisualStyle
  3
ObjectDBX Classes
 90
     4095
 91
        4
280
     0
281
     0
  0
CLASS
  1
MATERIAL
  2
AcDbMaterial
  3
ObjectDBX Classes
 90
     1153
 91
        4
280
     0
281
     0
  0
CLASS
  1
SUN
  2
AcDbSun
  3
SCENEOE
 90
     1024
 91
        4
280
     0
281
     0
  0
ENDSEC
  0
SECTION
  2
TABLES
  0
TABLE
  2
VPORT
  5
8
330
0
100
AcDbSymbolTable
 70
     1
  0
VPORT
  5
29
330
8
100
AcDbSymbolTableRecord
100
AcDbViewportTableRecord
  2
*Active
 70
     0
 10
0.0
 20
0.0
 11
1.0
 21
1.0
 12
0.0
 22
0.0
 13
0.0
 23
0.0
 14
0.5
 24
0.5
 15
0.5
 25
0.5
 16
0.0
 26
0.0
 36
1.0
 17
960.0
 27
-540.0
 37
0.0
 40
1080.0
 41
1.777777777777778
 42
50.0
 43
0.0
 44
0.0
 50
0.0
 51
0.0
 71
     0
 72
   100
 73
     1
 74
     3
 75
     0
 76
     0
 77
     0
 78
     0
281
     0
 65
     1
110
0.0
120
0.0
130
0.0
111
1.0
121
0.0
131
0.0
112
0.0
122
1.0
132
0.0
 79
     0
146
0.0
 60
     3
 61
     5
292
     1
282
     1
141
0.0
142
0.0
 63
   250
361
3F
  0
ENDTAB
  0
TABLE
  2
LTYPE
  5
5
330
0
100
AcDbSymbolTable
 70
     1
  0
LTYPE
  5
14
330
5
100
AcDbSymbolTableRecord
100
AcDbLinetypeTableRecord
  2
ByBlock
 70
     0
  3

 72
    65
 73
     0
 40
0.0
  0
LTYPE
  5
15
330
5
100
AcDbSymbolTableRecord
100
AcDbLinetypeTableRecord
  2
ByLayer
 70
     0
  3

 72
    65
 73
     0
 40
0.0
  0
LTYPE
  5
16
330
5
100
AcDbSymbolTableRecord
100
AcDbLinetypeTableRecord
  2
Continuous
 70
     0
  3
Solid line
 72
    65
 73
     0
 40
0.0
  0
ENDTAB
  0
TABLE
  2
LAYER
  5
2
330
0
100
AcDbSymbolTable
 70
     2
  0
LAYER
  5
10
330
2
100
AcDbSymbolTableRecord
100
AcDbLayerTableRecord
  2
0
 70
     0
 62
     7
  6
Continuous
370
    -3
390
F
347
3E
  0
LAYER
  5
40
330
2
100
AcDbSymbolTableRecord
100
AcDbLayerTableRecord
  2
Layer 1
 70
     0
 62
     7
  6
Continuous
370
    -3
390
F
347
3E
  0
ENDTAB
  0
TABLE
  2
STYLE
  5
3
330
0
100
AcDbSymbolTable
 70
     1
  0
STYLE
  5
11
330
3
100
AcDbSymbolTableRecord
100
AcDbTextStyleTableRecord
  2
Standard
 70
     0
 40
0.0
 41
1.0
 50
0.0
 71
     0
 42
0.2
  3
txt
  4

  0
ENDTAB
  0
TABLE
  2
VIEW
  5
6
330
0
100
AcDbSymbolTable
 70
     0
  0
ENDTAB
  0
TABLE
  2
UCS
  5
7
330
0
100
AcDbSymbolTable
 70
     0
  0
ENDTAB
  0
TABLE
  2
APPID
  5
9
330
0
100
AcDbSymbolTable
 70
     1
  0
APPID
  5
12
330
9
100
AcDbSymbolTableRecord
100
AcDbRegAppTableRecord
  2
ACAD
 70
     0
  0
ENDTAB
  0
TABLE
  2
DIMSTYLE
  5
A
330
0
100
AcDbSymbolTable
 70
     1
100
AcDbDimStyleTable
  0
DIMSTYLE
105
27
330
A
100
AcDbSymbolTableRecord
100
AcDbDimStyleTableRecord
  2
Standard
 70
     0
178
     0
340
11
  0
ENDTAB
  0
TABLE
  2
BLOCK_RECORD
  5
1
330
0
100
AcDbSymbolTable
 70
    25
  0
BLOCK_RECORD
  5
1F
330
1
100
AcDbSymbolTableRecord
100
AcDbBlockTableRecord
  2
*Model_Space
340
22
 70
     0
280
     1
281
     0
  0
BLOCK_RECORD
  5
1B
330
1
100
AcDbSymbolTableRecord
100
AcDbBlockTableRecord
  2
*Paper_Space
340
1E
 70
     0
280
     1
281
     0
  0
BLOCK_RECORD
  5
23
330
1
100
AcDbSymbolTableRecord
100
AcDbBlockTableRecord
  2
*Paper_Space0
340
26
 70
     0
280
     1
281
     0
  0
BLOCK_RECORD
  5
41
330
1
100
AcDbSymbolTableRecord
100
AcDbBlockTableRecord
  2
block 2
340
0
102
{BLKREFS
331
42
102
}
 70
     0
280
     1
281
     0
  0
BLOCK_RECORD
  5
81
330
1
100
AcDbSymbolTableRecord
100
AcDbBlockTableRecord
  2
block 3
340
0
102
{BLKREFS
331
82
102
}
 70
     0
280
     1
281
     0
  0
BLOCK_RECORD
  5
85
330
1
100
AcDbSymbolTableRecord
100
AcDbBlockTableRecord
  2
block 4
340
0
102
{BLKREFS
331
86
102
}
 70
     0
280
     1
281
     0
  0
BLOCK_RECORD
  5
8A
330
1
100
AcDbSymbolTableRecord
100
AcDbBlockTableRecord
  2
block 5
340
0
102
{BLKREFS
331
8B
102
}
 70
     0
280
     1
281
     0
  0
BLOCK_RECORD
  5
8F
330
1
100
AcDbSymbolTableRecord
100
AcDbBlockTableRecord
  2
block 6
340
0
102
{BLKREFS
331
90
102
}
 70
     0
280
     1
281
     0
  0
BLOCK_RECORD
  5
94
330
1
100
AcDbSymbolTableRecord
100
AcDbBlockTableRecord
  2
block 7
340
0
102
{BLKREFS
331
95
102
}
 70
     0
280
     1
281
     0
  0
BLOCK_RECORD
  5
99
330
1
100
AcDbSymbolTableRecord
100
AcDbBlockTableRecord
  2
block 8
340
0
102
{BLKREFS
331
9A
102
}
 70
     0
280
     1
281
     0
  0
BLOCK_RECORD
  5
9E
330
1
100
AcDbSymbolTableRecord
100
AcDbBlockTableRecord
  2
block 9
340
0
102
{BLKREFS
331
9F
102
}
 70
     0
280
     1
281
     0
  0
BLOCK_RECORD
  5
A2
330
1
100
AcDbSymbolTableRecord
100
AcDbBlockTableRecord
  2
block 10
340
0
102
{BLKREFS
331
A3
102
}
 70
     0
280
     1
281
     0
  0
BLOCK_RECORD
  5
AA
330
1
100
AcDbSymbolTableRecord
100
AcDbBlockTableRecord
  2
block 11
340
0
102
{BLKREFS
331
AB
102
}
 70
     0
280
     1
281
     0
  0
BLOCK_RECORD
  5
B2
330
1
100
AcDbSymbolTableRecord
100
AcDbBlockTableRecord
  2
block 12
340
0
102
{BLKREFS
331
B3
102
}
 70
     0
280
     1
281
     0
  0
BLOCK_RECORD
  5
B7
330
1
100
AcDbSymbolTableRecord
100
AcDbBlockTableRecord
  2
block 13
340
0
102
{BLKREFS
331
B8
102
}
 70
     0
280
     1
281
     0
  0
BLOCK_RECORD
  5
BC
330
1
100
AcDbSymbolTableRecord
100
AcDbBlockTableRecord
  2
block 14
340
0
102
{BLKREFS
331
BD
102
}
 70
     0
280
     1
281
     0
  0
BLOCK_RECORD
  5
C1
330
1
100
AcDbSymbolTableRecord
100
AcDbBlockTableRecord
  2
block 15
340
0
102
{BLKREFS
331
C2
102
}
 70
     0
280
     1
281
     0
  0
BLOCK_RECORD
  5
C6
330
1
100
AcDbSymbolTableRecord
100
AcDbBlockTableRecord
  2
block 16
340
0
102
{BLKREFS
331
C7
102
}
 70
     0
280
     1
281
     0
  0
BLOCK_RECORD
  5
CB
330
1
100
AcDbSymbolTableRecord
100
AcDbBlockTableRecord
  2
block 17
340
0
102
{BLKREFS
331
CC
102
}
 70
     0
280
     1
281
     0
  0
BLOCK_RECORD
  5
D0
330
1
100
AcDbSymbolTableRecord
100
AcDbBlockTableRecord
  2
block 18
340
0
102
{BLKREFS
331
D1
102
}
 70
     0
280
     1
281
     0
  0
BLOCK_RECORD
  5
D5
330
1
100
AcDbSymbolTableRecord
100
AcDbBlockTableRecord
  2
block 19
340
0
102
{BLKREFS
331
D6
102
}
 70
     0
280
     1
281
     0
  0
BLOCK_RECORD
  5
DD
330
1
100
AcDbSymbolTableRecord
100
AcDbBlockTableRecord
  2
block 20
340
0
102
{BLKREFS
331
DE
102
}
 70
     0
280
     1
281
     0
  0
BLOCK_RECORD
  5
E5
330
1
100
AcDbSymbolTableRecord
100
AcDbBlockTableRecord
  2
block 21
340
0
102
{BLKREFS
331
E6
102
}
 70
     0
280
     1
281
     0
  0
BLOCK_RECORD
  5
EA
330
1
100
AcDbSymbolTableRecord
100
AcDbBlockTableRecord
  2
block 22
340
0
102
{BLKREFS
331
EB
102
}
 70
     0
280
     1
281
     0
  0
BLOCK_RECORD
  5
EF
330
1
100
AcDbSymbolTableRecord
100
AcDbBlockTableRecord
  2
block 23
340
0
102
{BLKREFS
331
F0
102
}
 70
     0
280
     1
281
     0
  0
BLOCK_RECORD
  5
F4
330
1
100
AcDbSymbolTableRecord
100
AcDbBlockTableRecord
  2
block 24
340
0
102
{BLKREFS
331
F5
102
}
 70
     0
280
     1
281
     0
  0
BLOCK_RECORD
  5
F9
330
1
100
AcDbSymbolTableRecord
100
AcDbBlockTableRecord
  2
block 25
340
0
102
{BLKREFS
331
FA
102
}
 70
     0
280
     1
281
     0
  0
ENDTAB
  0
ENDSEC
  0
SECTION
  2
BLOCKS
  0
BLOCK
  5
20
330
1F
100
AcDbEntity
  8
0
100
AcDbBlockBegin
  2
*Model_Space
 70
     0
 10
0.0
 20
0.0
 30
0.0
  3
*Model_Space
  1

  0
ENDBLK
  5
21
330
1F
100
AcDbEntity
  8
0
100
AcDbBlockEnd
  0
BLOCK
  5
1C
330
1B
100
AcDbEntity
 67
     1
  8
0
100
AcDbBlockBegin
  2
*Paper_Space
 70
     0
 10
0.0
 20
0.0
 30
0.0
  3
*Paper_Space
  1

  0
ENDBLK
  5
1D
330
1B
100
AcDbEntity
 67
     1
  8
0
100
AcDbBlockEnd
  0
BLOCK
  5
24
330
23
100
AcDbEntity
  8
0
100
AcDbBlockBegin
  2
*Paper_Space0
 70
     0
 10
0.0
 20
0.0
 30
0.0
  3
*Paper_Space0
  1

  0
ENDBLK
  5
25
330
23
100
AcDbEntity
  8
0
100
AcDbBlockEnd
  0
BLOCK
  5
43
330
41
100
AcDbEntity
  8
0
100
AcDbBlockBegin
  2
block 2
 70
     0
 10
0.0
 20
0.0
 30
0.0
  3
block 2
  1

  0
POLYLINE
  5
45
330
41
100
AcDbEntity
  8
Layer 1
 62
     7
370
    35
100
AcDb2dPolyline
 66
     1
 10
0.0
 20
0.0
 30
0.0
  0
VERTEX
  5
46
330
45
100
AcDbEntity
  8
Layer 1
 62
     7
370
    35
100
AcDbVertex
100
AcDb2dVertex
 10
403.3918750260891
 20
-945.9216350680454
 30
0.0
  0
VERTEX
  5
47
330
45
100
AcDbEntity
  8
Layer 1
 62
     7
370
    35
100
AcDbVertex
100
AcDb2dVertex
 10
420.8286642801686
 20
-932.318377380514
 30
0.0
  0
VERTEX
  5
48
330
45
100
AcDbEntity
  8
Layer 1
 62
     7
370
    35
100
AcDbVertex
100
AcDb2dVertex
 10
438.2525396534465
 20
-922.5466597880986
 30
0.0
  0
VERTEX
  5
49
330
45
100
AcDbEntity
  8
Layer 1
 62
     7
370
    35
100
AcDbVertex
100
AcDb2dVertex
 10
455.9879330904369
 20
-916.1347917286439
 30
0.0
  0
VERTEX
  5
4A
330
45
100
AcDbEntity
  8
Layer 1
 62
     7
370
    35
100
AcDbVertex
100
AcDb2dVertex
 10
474.7288351281532
 20
-912.7375009603784
 30
0.0
  0
VERTEX
  5
4B
330
45
100
AcDbEntity
  8
Layer 1
 62
     7
370
    35
100
AcDbVertex
100
AcDb2dVertex
 10
495.4555980410896
 20
-912.1298045285876
 30
0.0
  0
VERTEX
  5
4C
330
45
100
AcDbEntity
  8
Layer 1
 62
     7
370
    35
100
AcDbVertex
100
AcDb2dVertex
 10
519.2423189114334
 20
-914.1228043986539
 30
0.0
  0
VERTEX
  5
4D
330
45
100
AcDbEntity
  8
Layer 1
 62
     7
370
    35
100
AcDbVertex
100
AcDb2dVertex
 10
547.0545712746798
 20
-918.4745324427422
 30
0.0
  0
VERTEX
  5
4E
330
45
100
AcDbEntity
  8
Layer 1
 62
     7
370
    35
100
AcDbVertex
100
AcDb2dVertex
 10
579.590306092673
 20
-924.8243728557045
 30
0.0
  0
VERTEX
  5
4F
330
45
100
AcDbEntity
  8
Layer 1
 62
     7
370
    35
100
AcDbVertex
100
AcDb2dVertex
 10
617.2041359247205
 20
-932.6724928390759
 30
0.0
  0
VERTEX
  5
50
330
45
100
AcDbEntity
  8
Layer 1
 62
     7
370
    35
100
AcDbVertex
100
AcDb2dVertex
 10
659.9368641589572
 20
-941.4171344706629
 30
0.0
  0
VERTEX
  5
51
330
45
100
AcDbEntity
  8
Layer 1
 62
     7
370
    35
100
AcDbVertex
100
AcDb2dVertex
 10
707.5617025935626
 20
-950.4010594488755
 30
0.0
  0
VERTEX
  5
52
330
45
100
AcDbEntity
  8
Layer 1
 62
     7
370
    35
100
AcDbVertex
100
AcDb2dVertex
 10
759.6178219557714
 20
-958.9510245928741
 30
0.0
  0
VERTEX
  5
53
330
45
100
AcDbEntity
  8
Layer 1
 62
     7
370
    35
100
AcDbVertex
100
AcDb2dVertex
 10
815.4504167354207
 20
-966.4209570685798
 30
0.0
  0
VERTEX
  5
54
330
45
100
AcDbEntity
  8
Layer 1
 62
     7
370
    35
100
AcDbVertex
100
AcDb2dVertex
 10
874.2507917845578
 20
-972.2352093829377
 30
0.0
  0
VERTEX
  5
55
330
45
100
AcDbEntity
  8
Layer 1
 62
     7
370
    35
100
AcDbVertex
100
AcDb2dVertex
 10
935.0940704465011
 20
-975.930596113396
 30
0.0
  0
VERTEX
  5
56
330
45
100
AcDbEntity
  8
Layer 1
 62
     7
370
    35
100
AcDbVertex
100
AcDb2dVertex
 10
996.9780199805518
 20
-977.1992085932488
 30
0.0
  0
VERTEX
  5
57
330
45
100
AcDbEntity
  8
Layer 1
 62
     7
370
    35
100
AcDbVertex
100
AcDb2dVertex
 10
1058.86196946259
 20
-975.9305958632431
 30
0.0
  0
VERTEX
  5
58
330
45
100
AcDbEntity
  8
Layer 1
 62
     7
370
    35
100
AcDbVertex
100
AcDb2dVertex
 10
1119.705247970422
 20
-972.2352089040814
 30
0.0
  0
VERTEX
  5
59
330
45
100
AcDbEntity
  8
Layer 1
 62
     7
370
    35
100
AcDbVertex
100
AcDb2dVertex
 10
1178.505622769071
 20
-966.4209564000321
 30
0.0
  0
VERTEX
  5
5A
330
45
100
AcDbEntity
  8
Layer 1
 62
     7
370
    35
100
AcDbVertex
100
AcDb2dVertex
 10
1234.338217211502
 20
-958.9510237869308
 30
0.0
  0
VERTEX
  5
5B
330
45
100
AcDbEntity
  8
Layer 1
 62
     7
370
    35
100
AcDbVertex
100
AcDb2dVertex
 10
1286.394336163172
 20
-950.4010585669112
 30
0.0
  0
VERTEX
  5
5C
330
45
100
AcDbEntity
  8
Layer 1
 62
     7
370
    35
100
AcDbVertex
100
AcDb2dVertex
 10
1334.019174131132
 20
-941.4171335789433
 30
0.0
  0
VERTEX
  5
5D
330
45
100
AcDbEntity
  8
Layer 1
 62
     7
370
    35
100
AcDbVertex
100
AcDb2dVertex
 10
1376.751901863961
 20
-932.6724920043671
 30
0.0
  0
VERTEX
  5
5E
330
45
100
AcDbEntity
  8
Layer 1
 62
     7
370
    35
100
AcDbVertex
100
AcDb2dVertex
 10
1414.365731184802
 20
-924.8243721411964
 30
0.0
  0
VERTEX
  5
5F
330
45
100
AcDbEntity
  8
Layer 1
 62
     7
370
    35
100
AcDbVertex
100
AcDb2dVertex
 10
1446.901465510262
 20
-918.4745319040303
 30
0.0
  0
VERTEX
  5
60
330
45
100
AcDbEntity
  8
Layer 1
 62
     7
370
    35
100
AcDbVertex
100
AcDb2dVertex
 10
1474.713717433522
 20
-914.1228040786827
 30
0.0
  0
VERTEX
  5
61
330
45
100
AcDbEntity
  8
Layer 1
 62
     7
370
    35
100
AcDbVertex
100
AcDb2dVertex
 10
1498.500437948591
 20
-912.1298044564919
 30
0.0
  0
VERTEX
  5
62
330
45
100
AcDbEntity
  8
Layer 1
 62
     7
370
    35
100
AcDbVertex
100
AcDb2dVertex
 10
1519.227200610731
 20
-912.737501156189
 30
0.0
  0
VERTEX
  5
63
330
45
100
AcDbEntity
  8
Layer 1
 62
     7
370
    35
100
AcDbVertex
100
AcDb2dVertex
 10
1537.96810250314
 20
-916.1347922113746
 30
0.0
  0
VERTEX
  5
64
330
45
100
AcDbEntity
  8
Layer 1
 62
     7
370
    35
100
AcDbVertex
100
AcDb2dVertex
 10
1555.703495880762
 20
-922.5466605849506
 30
0.0
  0
VERTEX
  5
65
330
45
100
AcDbEntity
  8
Layer 1
 62
     7
370
    35
100
AcDbVertex
100
AcDb2dVertex
 10
1573.127371245131
 20
-932.3183785330493
 30
0.0
  0
VERTEX
  5
66
330
45
100
AcDbEntity
  8
Layer 1
 62
     7
370
    35
100
AcDbVertex
100
AcDb2dVertex
 10
1590.564160505352
 20
-945.9216366267574
 30
0.0
  0
SEQEND
  5
67
330
45
100
AcDbEntity
  8
Layer 1
 62
     7
370
    35
  0
POLYLINE
  5
68
330
41
100
AcDbEntity
  8
Layer 1
 62
     7
370
    35
100
AcDb2dPolyline
 66
     1
 10
0.0
 20
0.0
 30
0.0
  0
VERTEX
  5
69
330
68
100
AcDbEntity
  8
Layer 1
 62
     7
370
    35
100
AcDbVertex
100
AcDb2dVertex
 10
403.3918750260891
 20
-945.9216350680454
 30
0.0
  0
VERTEX
  5
6A
330
68
100
AcDbEntity
  8
Layer 1
 62
     7
370
    35
100
AcDbVertex
100
AcDb2dVertex
 10
471.825314738594
 20
-965.5747293345103
 30
0.0
  0
VERTEX
  5
6B
330
68
100
AcDbEntity
  8
Layer 1
 62
     7
370
    35
100
AcDbVertex
100
AcDb2dVertex
 10
547.0545701779392
 20
-983.5439365794973
 30
0.0
  0
VERTEX
  5
6C
330
68
100
AcDbEntity
  8
Layer 1
 62
     7
370
    35
100
AcDbVertex
100
AcDb2dVertex
 10
579.5903049959325
 20
-989.8937769924614
 30
0.0
  0
VERTEX
  5
6D
330
68
100
AcDbEntity
  8
Layer 1
 62
     7
370
    35
100
AcDbVertex
100
AcDb2dVertex
 10
617.204134827979
 20
-997.7418969758346
 30
0.0
  0
VERTEX
  5
6E
330
68
100
AcDbEntity
  8
Layer 1
 62
     7
370
    35
100
AcDbVertex
100
AcDb2dVertex
 10
659.9368630622175
 20
-1006.48653860742
 30
0.0
  0
VERTEX
  5
6F
330
68
100
AcDbEntity
  8
Layer 1
 62
     7
370
    35
100
AcDbVertex
100
AcDb2dVertex
 10
707.561701496822
 20
-1015.470463585632
 30
0.0
  0
VERTEX
  5
70
330
68
100
AcDbEntity
  8
Layer 1
 62
     7
370
    35
100
AcDbVertex
100
AcDb2dVertex
 10
759.6178208590309
 20
-1024.020428729631
 30
0.0
  0
VERTEX
  5
71
330
68
100
AcDbEntity
  8
Layer 1
 62
     7
370
    35
100
AcDbVertex
100
AcDb2dVertex
 10
815.4504156386802
 20
-1031.490361205337
 30
0.0
  0
VERTEX
  5
72
330
68
100
AcDbEntity
  8
Layer 1
 62
     7
370
    35
100
AcDbVertex
100
AcDb2dVertex
 10
874.2507906878172
 20
-1037.304613519695
 30
0.0
  0
VERTEX
  5
73
330
68
100
AcDbEntity
  8
Layer 1
 62
     7
370
    35
100
AcDbVertex
100
AcDb2dVertex
 10
935.0940693497605
 20
-1041.000000250153
 30
0.0
  0
VERTEX
  5
74
330
68
100
AcDbEntity
  8
Layer 1
 62
     7
370
    35
100
AcDbVertex
100
AcDb2dVertex
 10
996.9780188838104
 20
-1042.268612730006
 30
0.0
  0
VERTEX
  5
75
330
68
100
AcDbEntity
  8
Layer 1
 62
     7
370
    35
100
AcDbVertex
100
AcDb2dVertex
 10
1058.861968365851
 20
-1041.0
 30
0.0
  0
VERTEX
  5
76
330
68
100
AcDbEntity
  8
Layer 1
 62
     7
370
    35
100
AcDbVertex
100
AcDb2dVertex
 10
1119.70524687368
 20
-1037.304613040838
 30
0.0
  0
VERTEX
  5
77
330
68
100
AcDbEntity
  8
Layer 1
 62
     7
370
    35
100
AcDbVertex
100
AcDb2dVertex
 10
1178.505621672331
 20
-1031.490360536789
 30
0.0
  0
VERTEX
  5
78
330
68
100
AcDbEntity
  8
Layer 1
 62
     7
370
    35
100
AcDbVertex
100
AcDb2dVertex
 10
1234.33821611476
 20
-1024.020427923688
 30
0.0
  0
VERTEX
  5
79
330
68
100
AcDbEntity
  8
Layer 1
 62
     7
370
    35
100
AcDbVertex
100
AcDb2dVertex
 10
1286.39433506643
 20
-1015.470462703668
 30
0.0
  0
VERTEX
  5
7A
330
68
100
AcDbEntity
  8
Layer 1
 62
     7
370
    35
100
AcDbVertex
100
AcDb2dVertex
 10
1334.01917303439
 20
-1006.486537715702
 30
0.0
  0
VERTEX
  5
7B
330
68
100
AcDbEntity
  8
Layer 1
 62
     7
370
    35
100
AcDbVertex
100
AcDb2dVertex
 10
1376.751900767222
 20
-997.7418961411258
 30
0.0
  0
VERTEX
  5
7C
330
68
100
AcDbEntity
  8
Layer 1
 62
     7
370
    35
100
AcDbVertex
100
AcDb2dVertex
 10
1414.365730088051
 20
-989.8937762779551
 30
0.0
  0
VERTEX
  5
7D
330
68
100
AcDbEntity
  8
Layer 1
 62
     7
370
    35
100
AcDbVertex
100
AcDb2dVertex
 10
1446.90146441352
 20
-983.5439360407854
 30
0.0
  0
VERTEX
  5
7E
330
68
100
AcDbEntity
  8
Layer 1
 62
     7
370
    35
100
AcDbVertex
100
AcDb2dVertex
 10
1511.923024028411
 20
-968.5062337976615
 30
0.0
  0
VERTEX
  5
7F
330
68
100
AcDbEntity
  8
Layer 1
 62
     7
370
    35
100
AcDbVertex
100
AcDb2dVertex
 10
1590.564160505352
 20
-945.9216366267574
 30
0.0
  0
SEQEND
  5
80
330
68
100
AcDbEntity
  8
Layer 1
 62
     7
370
    35
  0
INSERT
  5
82
330
41
100
AcDbEntity
  8
Layer 1
100
AcDbBlockReference
  2
block 3
 10
0.0
 20
0.0
 30
0.0
  0
ENDBLK
  5
44
330
41
100
AcDbEntity
  8
0
100
AcDbBlockEnd
  0
BLOCK
  5
83
330
81
100
AcDbEntity
  8
0
100
AcDbBlockBegin
  2
block 3
 70
     0
 10
0.0
 20
0.0
 30
0.0
  3
block 3
  1

  0
INSERT
  5
86
330
81
100
AcDbEntity
  8
Layer 1
100
AcDbBlockReference
  2
block 4
 10
0.0
 20
0.0
 30
0.0
  0
INSERT
  5
8B
330
81
100
AcDbEntity
  8
Layer 1
100
AcDbBlockReference
  2
block 5
 10
0.0
 20
0.0
 30
0.0
  0
INSERT
  5
90
330
81
100
AcDbEntity
  8
Layer 1
100
AcDbBlockReference
  2
block 6
 10
0.0
 20
0.0
 30
0.0
  0
INSERT
  5
95
330
81
100
AcDbEntity
  8
Layer 1
100
AcDbBlockReference
  2
block 7
 10
0.0
 20
0.0
 30
0.0
  0
INSERT
  5
9A
330
81
100
AcDbEntity
  8
Layer 1
100
AcDbBlockReference
  2
block 8
 10
0.0
 20
0.0
 30
0.0
  0
ENDBLK
  5
84
330
81
100
AcDbEntity
  8
0
100
AcDbBlockEnd
  0
BLOCK
  5
87
330
85
100
AcDbEntity
  8
0
100
AcDbBlockBegin
  2
block 4
 70
     0
 10
0.0
 20
0.0
 30
0.0
  3
block 4
  1

  0
SPLINE
  5
89
330
85
100
AcDbEntity
  8
Layer 1
 62
     1
370
    35
100
AcDbSpline
210
0.0
220
0.0
230
1.0
 70
    11
 71
     3
 72
    20
 73
    16
 74
     0
 42
0.0000000001
 43
0.0000000001
 12
1.0
 22
0.0
 32
0.0
 13
1.0
 23
0.0
 33
0.0
 40
0.0
 40
0.0
 40
0.0
 40
0.0
 40
1.0
 40
1.0
 40
1.0
 40
2.0
 40
2.0
 40
2.0
 40
3.0
 40
3.0
 40
3.0
 40
4.0
 40
4.0
 40
4.0
 40
5.0
 40
5.0
 40
5.0
 40
5.0
 10
1480.676972792391
 20
-935.2222466208077
 30
0.0
 10
1480.676972792391
 20
-937.9619465515971
 30
0.0
 10
1478.455972848502
 20
-940.1828704403742
 30
0.0
 10
1475.716272917711
 20
-940.1828704403742
 30
0.0
 10
1472.976572986921
 20
-940.1828704403742
 30
0.0
 10
1470.755673043021
 20
-937.9619465515971
 30
0.0
 10
1470.755673043021
 20
-935.2222466208077
 30
0.0
 10
1470.755673043021
 20
-932.4825466900184
 30
0.0
 10
1472.976572986921
 20
-930.261646746123
 30
0.0
 10
1475.716272917711
 20
-930.261646746123
 30
0.0
 10
1478.455972848502
 20
-930.261646746123
 30
0.0
 10
1480.676972792391
 20
-932.4825466900184
 30
0.0
 10
1480.676972792391
 20
-935.2222466208077
 30
0.0
 10
1480.676972792391
 20
-935.2222466208077
 30
0.0
 10
1480.676972792391
 20
-935.2222466208077
 30
0.0
 10
1480.676972792391
 20
-935.2222466208077
 30
0.0
  0
ENDBLK
  5
88
330
85
100
AcDbEntity
  8
0
100
AcDbBlockEnd
  0
BLOCK
  5
8C
330
8A
100
AcDbEntity
  8
0
100
AcDbBlockBegin
  2
block 5
 70
     0
 10
0.0
 20
0.0
 30
0.0
  3
block 5
  1

  0
SPLINE
  5
8E
330
8A
100
AcDbEntity
  8
Layer 1
 62
     1
370
    35
100
AcDbSpline
210
0.0
220
0.0
230
1.0
 70
    11
 71
     3
 72
    20
 73
    16
 74
     0
 42
0.0000000001
 43
0.0000000001
 12
1.0
 22
0.0
 32
0.0
 13
1.0
 23
0.0
 33
0.0
 40
0.0
 40
0.0
 40
0.0
 40
0.0
 40
1.0
 40
1.0
 40
1.0
 40
2.0
 40
2.0
 40
2.0
 40
3.0
 40
3.0
 40
3.0
 40
4.0
 40
4.0
 40
4.0
 40
5.0
 40
5.0
 40
5.0
 40
5.0
 10
1203.036979806171
 20
-1007.116570440374
 30
0.0
 10
1203.036979806171
 20
-1009.856270440374
 30
0.0
 10
1200.815979862271
 20
-1012.077270440373
 30
0.0
 10
1198.076361003812
 20
-1012.077270440373
 30
0.0
 10
1195.336680000692
 20
-1012.077270440373
 30
0.0
 10
1193.115680056801
 20
-1009.856270440374
 30
0.0
 10
1193.115680056801
 20
-1007.116570440374
 30
0.0
 10
1193.115680056801
 20
-1004.376870440374
 30
0.0
 10
1195.336680000692
 20
-1002.155970440375
 30
0.0
 10
1198.076361003812
 20
-1002.155970440375
 30
0.0
 10
1200.815979862271
 20
-1002.155970440375
 30
0.0
 10
1203.036979806171
 20
-1004.376870440374
 30
0.0
 10
1203.036979806171
 20
-1007.116570440374
 30
0.0
 10
1203.036979806171
 20
-1007.116570440374
 30
0.0
 10
1203.036979806171
 20
-1007.116570440374
 30
0.0
 10
1203.036979806171
 20
-1007.116570440374
 30
0.0
  0
ENDBLK
  5
8D
330
8A
100
AcDbEntity
  8
0
100
AcDbBlockEnd
  0
BLOCK
  5
91
330
8F
100
AcDbEntity
  8
0
100
AcDbBlockBegin
  2
block 6
 70
     0
 10
0.0
 20
0.0
 30
0.0
  3
block 6
  1

  0
SPLINE
  5
93
330
8F
100
AcDbEntity
  8
Layer 1
 62
     1
370
    35
100
AcDbSpline
210
0.0
220
0.0
230
1.0
 70
    11
 71
     3
 72
    20
 73
    16
 74
     0
 42
0.0000000001
 43
0.0000000001
 12
1.0
 22
0.0
 32
0.0
 13
1.0
 23
0.0
 33
0.0
 40
0.0
 40
0.0
 40
0.0
 40
0.0
 40
1.0
 40
1.0
 40
1.0
 40
2.0
 40
2.0
 40
2.0
 40
3.0
 40
3.0
 40
3.0
 40
4.0
 40
4.0
 40
4.0
 40
5.0
 40
5.0
 40
5.0
 40
5.0
 10
800.8616610038116
 20
-1007.135070440374
 30
0.0
 10
800.8616610038116
 20
-1009.874770440374
 30
0.0
 10
798.6407610038104
 20
-1012.095670440374
 30
0.0
 10
795.9010610038122
 20
-1012.095670440374
 30
0.0
 10
793.1613610038103
 20
-1012.095670440374
 30
0.0
 10
790.9404610038118
 20
-1009.874770440374
 30
0.0
 10
790.9404610038118
 20
-1007.135070440374
 30
0.0
 10
790.9404610038118
 20
-1004.395370440374
 30
0.0
 10
793.1613610038103
 20
-1002.174470440374
 30
0.0
 10
795.9010610038122
 20
-1002.174470440374
 30
0.0
 10
798.6407610038104
 20
-1002.174470440374
 30
0.0
 10
800.8616610038116
 20
-1004.395370440374
 30
0.0
 10
800.8616610038116
 20
-1007.135070440374
 30
0.0
 10
800.8616610038116
 20
-1007.135070440374
 30
0.0
 10
800.8616610038116
 20
-1007.135070440374
 30
0.0
 10
800.8616610038116
 20
-1007.135070440374
 30
0.0
  0
ENDBLK
  5
92
330
8F
100
AcDbEntity
  8
0
100
AcDbBlockEnd
  0
BLOCK
  5
96
330
94
100
AcDbEntity
  8
0
100
AcDbBlockBegin
  2
block 7
 70
     0
 10
0.0
 20
0.0
 30
0.0
  3
block 7
  1

  0
SPLINE
  5
98
330
94
100
AcDbEntity
  8
Layer 1
 62
     1
370
    35
100
AcDbSpline
210
0.0
220
0.0
230
1.0
 70
    11
 71
     3
 72
    20
 73
    16
 74
     0
 42
0.0000000001
 43
0.0000000001
 12
1.0
 22
0.0
 32
0.0
 13
1.0
 23
0.0
 33
0.0
 40
0.0
 40
0.0
 40
0.0
 40
0.0
 40
1.0
 40
1.0
 40
1.0
 40
2.0
 40
2.0
 40
2.0
 40
3.0
 40
3.0
 40
3.0
 40
4.0
 40
4.0
 40
4.0
 40
5.0
 40
5.0
 40
5.0
 40
5.0
 10
523.2002610038126
 20
-935.2408704403733
 30
0.0
 10
523.2002610038126
 20
-937.9804465511297
 30
0.0
 10
520.9793610038114
 20
-940.2014464950225
 30
0.0
 10
518.2396610038113
 20
-940.2014464950225
 30
0.0
 10
515.4999610038112
 20
-940.2014464950225
 30
0.0
 10
513.279061003811
 20
-937.9804465511297
 30
0.0
 10
513.279061003811
 20
-935.2408704403733
 30
0.0
 10
513.279061003811
 20
-932.5011466895485
 30
0.0
 10
515.4999610038112
 20
-930.2801467456557
 30
0.0
 10
518.2396610038113
 20
-930.2801467456557
 30
0.0
 10
520.9793610038114
 20
-930.2801467456557
 30
0.0
 10
523.2002610038126
 20
-932.5011466895485
 30
0.0
 10
523.2002610038126
 20
-935.2408704403733
 30
0.0
 10
523.2002610038126
 20
-935.2408704403733
 30
0.0
 10
523.2002610038126
 20
-935.2408704403733
 30
0.0
 10
523.2002610038126
 20
-935.2408704403733
 30
0.0
  0
ENDBLK
  5
97
330
94
100
AcDbEntity
  8
0
100
AcDbBlockEnd
  0
BLOCK
  5
9B
330
99
100
AcDbEntity
  8
0
100
AcDbBlockBegin
  2
block 8
 70
     0
 10
0.0
 20
0.0
 30
0.0
  3
block 8
  1

  0
SPLINE
  5
9D
330
99
100
AcDbEntity
  8
Layer 1
 62
     1
370
    35
100
AcDbSpline
210
0.0
220
0.0
230
1.0
 70
    11
 71
     3
 72
    20
 73
    16
 74
     0
 42
0.0000000001
 43
0.0000000001
 12
1.0
 22
0.0
 32
0.0
 13
1.0
 23
0.0
 33
0.0
 40
0.0
 40
0.0
 40
0.0
 40
0.0
 40
1.0
 40
1.0
 40
1.0
 40
2.0
 40
2.0
 40
2.0
 40
3.0
 40
3.0
 40
3.0
 40
4.0
 40
4.0
 40
4.0
 40
5.0
 40
5.0
 40
5.0
 40
5.0
 10
1001.954684885932
 20
-1019.176170440374
 30
0.0
 10
1001.954684885932
 20
-1021.915870440374
 30
0.0
 10
999.7336849420408
 20
-1024.136770440375
 30
0.0
 10
996.9940850112507
 20
-1024.136770440375
 30
0.0
 10
994.2543610038101
 20
-1024.136770440375
 30
0.0
 10
992.0333610038124
 20
-1021.915870440374
 30
0.0
 10
992.0333610038124
 20
-1019.176170440374
 30
0.0
 10
992.0333610038124
 20
-1016.436470440374
 30
0.0
 10
994.2543610038101
 20
-1014.215570440374
 30
0.0
 10
996.9940850112507
 20
-1014.215570440374
 30
0.0
 10
999.7336849420408
 20
-1014.215570440374
 30
0.0
 10
1001.954684885932
 20
-1016.436470440374
 30
0.0
 10
1001.954684885932
 20
-1019.176170440374
 30
0.0
 10
1001.954684885932
 20
-1019.176170440374
 30
0.0
 10
1001.954684885932
 20
-1019.176170440374
 30
0.0
 10
1001.954684885932
 20
-1019.176170440374
 30
0.0
  0
ENDBLK
  5
9C
330
99
100
AcDbEntity
  8
0
100
AcDbBlockEnd
  0
BLOCK
  5
A0
330
9E
100
AcDbEntity
  8
0
100
AcDbBlockBegin
  2
block 9
 70
     0
 10
0.0
 20
0.0
 30
0.0
  3
block 9
  1

  0
INSERT
  5
A3
330
9E
100
AcDbEntity
  8
Layer 1
100
AcDbBlockReference
  2
block 10
 10
0.0
 20
0.0
 30
0.0
  0
INSERT
  5
AB
330
9E
100
AcDbEntity
  8
Layer 1
100
AcDbBlockReference
  2
block 11
 10
0.0
 20
0.0
 30
0.0
  0
INSERT
  5
B3
330
9E
100
AcDbEntity
  8
Layer 1
100
AcDbBlockReference
  2
block 12
 10
0.0
 20
0.0
 30
0.0
  0
INSERT
  5
B8
330
9E
100
AcDbEntity
  8
Layer 1
100
AcDbBlockReference
  2
block 13
 10
0.0
 20
0.0
 30
0.0
  0
INSERT
  5
BD
330
9E
100
AcDbEntity
  8
Layer 1
100
AcDbBlockReference
  2
block 14
 10
0.0
 20
0.0
 30
0.0
  0
INSERT
  5
C2
330
9E
100
AcDbEntity
  8
Layer 1
100
AcDbBlockReference
  2
block 15
 10
0.0
 20
0.0
 30
0.0
  0
INSERT
  5
C7
330
9E
100
AcDbEntity
  8
Layer 1
100
AcDbBlockReference
  2
block 16
 10
0.0
 20
0.0
 30
0.0
  0
INSERT
  5
CC
330
9E
100
AcDbEntity
  8
Layer 1
100
AcDbBlockReference
  2
block 17
 10
0.0
 20
0.0
 30
0.0
  0
INSERT
  5
D1
330
9E
100
AcDbEntity
  8
Layer 1
100
AcDbBlockReference
  2
block 18
 10
0.0
 20
0.0
 30
0.0
  0
ENDBLK
  5
A1
330
9E
100
AcDbEntity
  8
0
100
AcDbBlockEnd
  0
BLOCK
  5
A4
330
A2
100
AcDbEntity
  8
0
100
AcDbBlockBegin
  2
block 10
 70
     0
 10
0.0
 20
0.0
 30
0.0
  3
block 10
  1

  0
POLYLINE
  5
A6
330
A2
100
AcDbEntity
  8
Layer 1
 62
     7
370
    25
100
AcDb2dPolyline
 66
     1
 10
0.0
 20
0.0
 30
0.0
  0
VERTEX
  5
A7
330
A6
100
AcDbEntity
  8
Layer 1
 62
     7
370
    25
100
AcDbVertex
100
AcDb2dVertex
 10
944.1037653297226
 20
-80.50453019427641
 30
0.0
  0
VERTEX
  5
A8
330
A6
100
AcDbEntity
  8
Layer 1
 62
     7
370
    25
100
AcDbVertex
100
AcDb2dVertex
 10
944.1037653297226
 20
-78.43343019427721
 30
0.0
  0
SEQEND
  5
A9
330
A6
100
AcDbEntity
  8
Layer 1
 62
     7
370
    25
  0
ENDBLK
  5
A5
330
A2
100
AcDbEntity
  8
0
100
AcDbBlockEnd
  0
BLOCK
  5
AC
330
AA
100
AcDbEntity
  8
0
100
AcDbBlockBegin
  2
block 11
 70
     0
 10
0.0
 20
0.0
 30
0.0
  3
block 11
  1

  0
POLYLINE
  5
AE
330
AA
100
AcDbEntity
  8
Layer 1
 62
     7
370
    25
100
AcDb2dPolyline
 66
     1
 10
0.0
 20
0.0
 30
0.0
  0
VERTEX
  5
AF
330
AE
100
AcDbEntity
  8
Layer 1
 62
     7
370
    25
100
AcDbVertex
100
AcDb2dVertex
 10
1045.300688058938
 20
-80.50453019427641
 30
0.0
  0
VERTEX
  5
B0
330
AE
100
AcDbEntity
  8
Layer 1
 62
     7
370
    25
100
AcDbVertex
100
AcDb2dVertex
 10
1045.300688058938
 20
-78.43343019427721
 30
0.0
  0
SEQEND
  5
B1
330
AE
100
AcDbEntity
  8
Layer 1
 62
     7
370
    25
  0
ENDBLK
  5
AD
330
AA
100
AcDbEntity
  8
0
100
AcDbBlockEnd
  0
BLOCK
  5
B4
330
B2
100
AcDbEntity
  8
0
100
AcDbBlockBegin
  2
block 12
 70
     0
 10
0.0
 20
0.0
 30
0.0
  3
block 12
  1

  0
SPLINE
  5
B6
330
B2
100
AcDbEntity
  8
Layer 1
 62
     7
370
    25
100
AcDbSpline
210
0.0
220
0.0
230
1.0
 70
    11
 71
     3
 72
    20
 73
    16
 74
     0
 42
0.0000000001
 43
0.0000000001
 12
1.0
 22
0.0
 32
0.0
 13
1.0
 23
0.0
 33
0.0
 40
0.0
 40
0.0
 40
0.0
 40
0.0
 40
1.0
 40
1.0
 40
1.0
 40
2.0
 40
2.0
 40
2.0
 40
3.0
 40
3.0
 40
3.0
 40
4.0
 40
4.0
 40
4.0
 40
5.0
 40
5.0
 40
5.0
 40
5.0
 10
511.0192762703573
 20
-210.2320540138435
 30
0.0
 10
511.0192762703573
 20
-207.4923540830541
 30
0.0
 10
513.2402762142501
 20
-205.2714301942769
 30
0.0
 10
515.9799761450395
 20
-205.2714301942769
 30
0.0
 10
518.7196760758288
 20
-205.2714301942769
 30
0.0
 10
520.9405760197242
 20
-207.4923540830541
 30
0.0
 10
520.9405760197242
 20
-210.2320540138435
 30
0.0
 10
520.9405760197242
 20
-212.9717539446328
 30
0.0
 10
518.7196760758288
 20
-215.1926538885282
 30
0.0
 10
515.9799761450395
 20
-215.1926538885282
 30
0.0
 10
513.2402762142501
 20
-215.1926538885282
 30
0.0
 10
511.0192762703573
 20
-212.9717539446328
 30
0.0
 10
511.0192762703573
 20
-210.2320540138435
 30
0.0
 10
511.0192762703573
 20
-210.2320540138435
 30
0.0
 10
511.0192762703573
 20
-210.2320540138435
 30
0.0
 10
511.0192762703573
 20
-210.2320540138435
 30
0.0
  0
ENDBLK
  5
B5
330
B2
100
AcDbEntity
  8
0
100
AcDbBlockEnd
  0
BLOCK
  5
B9
330
B7
100
AcDbEntity
  8
0
100
AcDbBlockBegin
  2
block 13
 70
     0
 10
0.0
 20
0.0
 30
0.0
  3
block 13
  1

  0
SPLINE
  5
BB
330
B7
100
AcDbEntity
  8
Layer 1
 62
     7
370
    25
100
AcDbSpline
210
0.0
220
0.0
230
1.0
 70
    11
 71
     3
 72
    20
 73
    16
 74
     0
 42
0.0000000001
 43
0.0000000001
 12
1.0
 22
0.0
 32
0.0
 13
1.0
 23
0.0
 33
0.0
 40
0.0
 40
0.0
 40
0.0
 40
0.0
 40
1.0
 40
1.0
 40
1.0
 40
2.0
 40
2.0
 40
2.0
 40
3.0
 40
3.0
 40
3.0
 40
4.0
 40
4.0
 40
4.0
 40
5.0
 40
5.0
 40
5.0
 40
5.0
 10
788.659269256581
 20
-138.3377301942774
 30
0.0
 10
788.659269256581
 20
-135.5980301942773
 30
0.0
 10
790.8802692004738
 20
-133.3770301942768
 30
0.0
 10
793.6198880589382
 20
-133.3770301942768
 30
0.0
 10
796.359569062055
 20
-133.3770301942768
 30
0.0
 10
798.5805690059478
 20
-135.5980301942773
 30
0.0
 10
798.5805690059478
 20
-138.3377301942774
 30
0.0
 10
798.5805690059478
 20
-141.0774301942774
 30
0.0
 10
796.359569062055
 20
-143.2983301942768
 30
0.0
 10
793.6198880589382
 20
-143.2983301942768
 30
0.0
 10
790.8802692004738
 20
-143.2983301942768
 30
0.0
 10
788.659269256581
 20
-141.0774301942774
 30
0.0
 10
788.659269256581
 20
-138.3377301942774
 30
0.0
 10
788.659269256581
 20
-138.3377301942774
 30
0.0
 10
788.659269256581
 20
-138.3377301942774
 30
0.0
 10
788.659269256581
 20
-138.3377301942774
 30
0.0
  0
ENDBLK
  5
BA
330
B7
100
AcDbEntity
  8
0
100
AcDbBlockEnd
  0
BLOCK
  5
BE
330
BC
100
AcDbEntity
  8
0
100
AcDbBlockBegin
  2
block 14
 70
     0
 10
0.0
 20
0.0
 30
0.0
  3
block 14
  1

  0
SPLINE
  5
C0
330
BC
100
AcDbEntity
  8
Layer 1
 62
     7
370
    25
100
AcDbSpline
210
0.0
220
0.0
230
1.0
 70
    11
 71
     3
 72
    20
 73
    16
 74
     0
 42
0.0000000001
 43
0.0000000001
 12
1.0
 22
0.0
 32
0.0
 13
1.0
 23
0.0
 33
0.0
 40
0.0
 40
0.0
 40
0.0
 40
0.0
 40
1.0
 40
1.0
 40
1.0
 40
2.0
 40
2.0
 40
2.0
 40
3.0
 40
3.0
 40
3.0
 40
4.0
 40
4.0
 40
4.0
 40
5.0
 40
5.0
 40
5.0
 40
5.0
 10
1190.834588058939
 20
-138.3192301942772
 30
0.0
 10
1190.834588058939
 20
-135.5795301942771
 30
0.0
 10
1193.055488058939
 20
-133.3586301942769
 30
0.0
 10
1195.795188058937
 20
-133.3586301942769
 30
0.0
 10
1198.534888058939
 20
-133.3586301942769
 30
0.0
 10
1200.755788058937
 20
-135.5795301942771
 30
0.0
 10
1200.755788058937
 20
-138.3192301942772
 30
0.0
 10
1200.755788058937
 20
-141.0589301942773
 30
0.0
 10
1198.534888058939
 20
-143.2798301942767
 30
0.0
 10
1195.795188058937
 20
-143.2798301942767
 30
0.0
 10
1193.055488058939
 20
-143.2798301942767
 30
0.0
 10
1190.834588058939
 20
-141.0589301942773
 30
0.0
 10
1190.834588058939
 20
-138.3192301942772
 30
0.0
 10
1190.834588058939
 20
-138.3192301942772
 30
0.0
 10
1190.834588058939
 20
-138.3192301942772
 30
0.0
 10
1190.834588058939
 20
-138.3192301942772
 30
0.0
  0
ENDBLK
  5
BF
330
BC
100
AcDbEntity
  8
0
100
AcDbBlockEnd
  0
BLOCK
  5
C3
330
C1
100
AcDbEntity
  8
0
100
AcDbBlockBegin
  2
block 15
 70
     0
 10
0.0
 20
0.0
 30
0.0
  3
block 15
  1

  0
SPLINE
  5
C5
330
C1
100
AcDbEntity
  8
Layer 1
 62
     7
370
    25
100
AcDbSpline
210
0.0
220
0.0
230
1.0
 70
    11
 71
     3
 72
    20
 73
    16
 74
     0
 42
0.0000000001
 43
0.0000000001
 12
1.0
 22
0.0
 32
0.0
 13
1.0
 23
0.0
 33
0.0
 40
0.0
 40
0.0
 40
0.0
 40
0.0
 40
1.0
 40
1.0
 40
1.0
 40
2.0
 40
2.0
 40
2.0
 40
3.0
 40
3.0
 40
3.0
 40
4.0
 40
4.0
 40
4.0
 40
5.0
 40
5.0
 40
5.0
 40
5.0
 10
1468.495988058938
 20
-210.213430194277
 30
0.0
 10
1468.495988058938
 20
-207.4738540835215
 30
0.0
 10
1470.716888058938
 20
-205.2528541396287
 30
0.0
 10
1473.456588058938
 20
-205.2528541396287
 30
0.0
 10
1476.196288058938
 20
-205.2528541396287
 30
0.0
 10
1478.417188058938
 20
-207.4738540835215
 30
0.0
 10
1478.417188058938
 20
-210.213430194277
 30
0.0
 10
1478.417188058938
 20
-212.9531539451027
 30
0.0
 10
1476.196288058938
 20
-215.1741538889955
 30
0.0
 10
1473.456588058938
 20
-215.1741538889955
 30
0.0
 10
1470.716888058938
 20
-215.1741538889955
 30
0.0
 10
1468.495988058938
 20
-212.9531539451027
 30
0.0
 10
1468.495988058938
 20
-210.213430194277
 30
0.0
 10
1468.495988058938
 20
-210.213430194277
 30
0.0
 10
1468.495988058938
 20
-210.213430194277
 30
0.0
 10
1468.495988058938
 20
-210.213430194277
 30
0.0
  0
ENDBLK
  5
C4
330
C1
100
AcDbEntity
  8
0
100
AcDbBlockEnd
  0
BLOCK
  5
C8
330
C6
100
AcDbEntity
  8
0
100
AcDbBlockBegin
  2
block 16
 70
     0
 10
0.0
 20
0.0
 30
0.0
  3
block 16
  1

  0
SPLINE
  5
CA
330
C6
100
AcDbEntity
  8
Layer 1
 62
     7
370
    25
100
AcDbSpline
210
0.0
220
0.0
230
1.0
 70
    11
 71
     3
 72
    20
 73
    16
 74
     0
 42
0.0000000001
 43
0.0000000001
 12
1.0
 22
0.0
 32
0.0
 13
1.0
 23
0.0
 33
0.0
 40
0.0
 40
0.0
 40
0.0
 40
0.0
 40
1.0
 40
1.0
 40
1.0
 40
2.0
 40
2.0
 40
2.0
 40
3.0
 40
3.0
 40
3.0
 40
4.0
 40
4.0
 40
4.0
 40
5.0
 40
5.0
 40
5.0
 40
5.0
 10
989.7415641768148
 20
-126.2781301942769
 30
0.0
 10
989.7415641768148
 20
-123.5384301942768
 30
0.0
 10
991.9625641207076
 20
-121.3175301942765
 30
0.0
 10
994.7021640514995
 20
-121.3175301942765
 30
0.0
 10
997.4418880589383
 20
-121.3175301942765
 30
0.0
 10
999.6628880589378
 20
-123.5384301942768
 30
0.0
 10
999.6628880589378
 20
-126.2781301942769
 30
0.0
 10
999.6628880589378
 20
-129.0178301942769
 30
0.0
 10
997.4418880589383
 20
-131.2387301942772
 30
0.0
 10
994.7021640514995
 20
-131.2387301942772
 30
0.0
 10
991.9625641207076
 20
-131.2387301942772
 30
0.0
 10
989.7415641768148
 20
-129.0178301942769
 30
0.0
 10
989.7415641768148
 20
-126.2781301942769
 30
0.0
 10
989.7415641768148
 20
-126.2781301942769
 30
0.0
 10
989.7415641768148
 20
-126.2781301942769
 30
0.0
 10
989.7415641768148
 20
-126.2781301942769
 30
0.0
  0
ENDBLK
  5
C9
330
C6
100
AcDbEntity
  8
0
100
AcDbBlockEnd
  0
BLOCK
  5
CD
330
CB
100
AcDbEntity
  8
0
100
AcDbBlockBegin
  2
block 17
 70
     0
 10
0.0
 20
0.0
 30
0.0
  3
block 17
  1

  0
SPLINE
  5
CF
330
CB
100
AcDbEntity
  8
Layer 1
 62
     7
370
    25
100
AcDbSpline
210
0.0
220
0.0
230
1.0
 70
     8
 71
     3
 72
    47
 73
    43
 74
     0
 42
0.0000000001
 43
0.0000000001
 12
1.0
 22
0.0
 32
0.0
 13
1.0
 23
0.0
 33
0.0
 40
0.0
 40
0.0
 40
0.0
 40
0.0
 40
1.0
 40
1.0
 40
1.0
 40
2.0
 40
2.0
 40
2.0
 40
3.0
 40
3.0
 40
3.0
 40
4.0
 40
4.0
 40
4.0
 40
5.0
 40
5.0
 40
5.0
 40
6.0
 40
6.0
 40
6.0
 40
7.0
 40
7.0
 40
7.0
 40
8.0
 40
8.0
 40
8.0
 40
9.0
 40
9.0
 40
9.0
 40
10.0
 40
10.0
 40
10.0
 40
11.0
 40
11.0
 40
11.0
 40
12.0
 40
12.0
 40
12.0
 40
13.0
 40
13.0
 40
13.0
 40
14.0
 40
14.0
 40
14.0
 40
14.0
 10
294.6377817366138
 20
-414.4617488545673
 30
0.0
 10
301.2257815701869
 20
-387.6615495315973
 30
0.0
 10
311.0085813230526
 20
-359.2880502483722
 30
0.0
 10
322.5390810317676
 20
-335.6372508458417
 30
0.0
 10
340.6269805748288
 20
-298.5361517830943
 30
0.0
 10
364.9400799606283
 20
-265.7583526111312
 30
0.0
 10
395.1986791962318
 20
-237.4616533259659
 30
0.0
 10
432.1966782615837
 20
-202.8626542000102
 30
0.0
 10
478.0922771021633
 20
-174.8872549067282
 30
0.0
 10
531.2003757605398
 20
-152.6022301942767
 30
0.0
 10
592.2997742170392
 20
-126.9638301942769
 30
0.0
 10
662.9451724323862
 20
-108.8003301942772
 30
0.0
 10
739.0421705100143
 20
-96.70483019427684
 30
0.0
 10
820.1468880589382
 20
-83.8134301942764
 30
0.0
 10
907.3854662573049
 20
-77.75283019427661
 30
0.0
 10
994.6647640524443
 20
-77.7448301942768
 30
0.0
 10
1038.16366295357
 20
-77.7408301942769
 30
0.0
 10
1081.661588058938
 20
-79.26213019427723
 30
0.0
 10
1124.387188058938
 20
-82.3611301942774
 30
0.0
 10
1210.162688058937
 20
-88.58253019427684
 30
0.0
 10
1292.742988058939
 20
-101.109130194277
 30
0.0
 10
1366.475788058937
 20
-121.2989301942771
 30
0.0
 10
1434.314588058938
 20
-139.8747301942767
 30
0.0
 10
1494.631688058938
 20
-164.9893551567702
 30
0.0
 10
1544.305988058937
 20
-198.0846543207126
 30
0.0
 10
1585.187588058938
 20
-225.3219536326405
 30
0.0
 10
1618.872388058937
 20
-258.04685280594
 30
0.0
 10
1644.540788058939
 20
-296.5857518323655
 30
0.0
 10
1666.970288058938
 20
-330.2617509816382
 30
0.0
 10
1683.284488058938
 20
-368.4044301942768
 30
0.0
 10
1693.662788058939
 20
-410.0799489652609
 30
0.0
 10
1694.053888058937
 20
-411.6503489255892
 30
0.0
 10
1694.436488058938
 20
-413.2256488857938
 30
0.0
 10
1694.810788058938
 20
-414.8060488458696
 30
0.0
 10
1603.294788058938
 20
-247.2273530792636
 30
0.0
 10
1215.657088058937
 20
-143.5314301942772
 30
0.0
 10
828.9978880589379
 20
-183.1945546968682
 30
0.0
 10
564.1775749274657
 20
-210.3595540106226
 30
0.0
 10
357.3869801514356
 20
-299.9590517471488
 30
0.0
 10
294.6377817366138
 20
-414.7251488479133
 30
0.0
 10
294.6377817366138
 20
-414.7251488479133
 30
0.0
 10
291.855888058938
 20
-426.5216485499086
 30
0.0
 10
291.855888058938
 20
-426.5216485499086
 30
0.0
  0
ENDBLK
  5
CE
330
CB
100
AcDbEntity
  8
0
100
AcDbBlockEnd
  0
BLOCK
  5
D2
330
D0
100
AcDbEntity
  8
0
100
AcDbBlockBegin
  2
block 18
 70
     0
 10
0.0
 20
0.0
 30
0.0
  3
block 18
  1

  0
SPLINE
  5
D4
330
D0
100
AcDbEntity
  8
Layer 1
 62
     7
370
    25
100
AcDbSpline
210
0.0
220
0.0
230
1.0
 70
     8
 71
     3
 72
     8
 73
     4
 74
     0
 42
0.0000000001
 43
0.0000000001
 12
1.0
 22
0.0
 32
0.0
 13
1.0
 23
0.0
 33
0.0
 40
0.0
 40
0.0
 40
0.0
 40
0.0
 40
1.0
 40
1.0
 40
1.0
 40
1.0
 10
1541.080088058938
 20
-283.7642521562639
 30
0.0
 10
1538.385688058939
 20
-282.0501521995657
 30
0.0
 10
1535.517688058937
 20
-280.6255522355541
 30
0.0
 10
1532.523988058938
 20
-279.5139522636355
 30
0.0
  0
ENDBLK
  5
D3
330
D0
100
AcDbEntity
  8
0
100
AcDbBlockEnd
  0
BLOCK
  5
D7
330
D5
100
AcDbEntity
  8
0
100
AcDbBlockBegin
  2
block 19
 70
     0
 10
0.0
 20
0.0
 30
0.0
  3
block 19
  1

  0
POLYLINE
  5
D9
330
D5
100
AcDbEntity
  8
Layer 1
 62
     7
370
    25
100
AcDb2dPolyline
 66
     1
 10
0.0
 20
0.0
 30
0.0
  0
VERTEX
  5
DA
330
D9
100
AcDbEntity
  8
Layer 1
 62
     7
370
    25
100
AcDbVertex
100
AcDb2dVertex
 10
942.7348772707846
 20
-409.3760999999995
 30
0.0
  0
VERTEX
  5
DB
330
D9
100
AcDbEntity
  8
Layer 1
 62
     7
370
    25
100
AcDbVertex
100
AcDb2dVertex
 10
942.7348772707846
 20
-407.3050000000003
 30
0.0
  0
SEQEND
  5
DC
330
D9
100
AcDbEntity
  8
Layer 1
 62
     7
370
    25
  0
ENDBLK
  5
D8
330
D5
100
AcDbEntity
  8
0
100
AcDbBlockEnd
  0
BLOCK
  5
DF
330
DD
100
AcDbEntity
  8
0
100
AcDbBlockBegin
  2
block 20
 70
     0
 10
0.0
 20
0.0
 30
0.0
  3
block 20
  1

  0
POLYLINE
  5
E1
330
DD
100
AcDbEntity
  8
Layer 1
 62
     7
370
    25
100
AcDb2dPolyline
 66
     1
 10
0.0
 20
0.0
 30
0.0
  0
VERTEX
  5
E2
330
E1
100
AcDbEntity
  8
Layer 1
 62
     7
370
    25
100
AcDbVertex
100
AcDb2dVertex
 10
1043.9318
 20
-409.3760999999995
 30
0.0
  0
VERTEX
  5
E3
330
E1
100
AcDbEntity
  8
Layer 1
 62
     7
370
    25
100
AcDbVertex
100
AcDb2dVertex
 10
1043.9318
 20
-407.3050000000003
 30
0.0
  0
SEQEND
  5
E4
330
E1
100
AcDbEntity
  8
Layer 1
 62
     7
370
    25
  0
ENDBLK
  5
E0
330
DD
100
AcDbEntity
  8
0
100
AcDbBlockEnd
  0
BLOCK
  5
E7
330
E5
100
AcDbEntity
  8
0
100
AcDbBlockBegin
  2
block 21
 70
     0
 10
0.0
 20
0.0
 30
0.0
  3
block 21
  1

  0
SPLINE
  5
E9
330
E5
100
AcDbEntity
  8
Layer 1
 62
     7
370
    25
100
AcDbSpline
210
0.0
220
0.0
230
1.0
 70
    11
 71
     3
 72
    20
 73
    16
 74
     0
 42
0.0000000001
 43
0.0000000001
 12
1.0
 22
0.0
 32
0.0
 13
1.0
 23
0.0
 33
0.0
 40
0.0
 40
0.0
 40
0.0
 40
0.0
 40
1.0
 40
1.0
 40
1.0
 40
2.0
 40
2.0
 40
2.0
 40
3.0
 40
3.0
 40
3.0
 40
4.0
 40
4.0
 40
4.0
 40
5.0
 40
5.0
 40
5.0
 40
5.0
 10
509.6503882114193
 20
-539.1036238195666
 30
0.0
 10
509.6503882114193
 20
-536.3639238887772
 30
0.0
 10
511.8713881553122
 20
-534.143
 30
0.0
 10
514.6110880861015
 20
-534.143
 30
0.0
 10
517.3507880168909
 20
-534.143
 30
0.0
 10
519.5716879607862
 20
-536.3639238887772
 30
0.0
 10
519.5716879607862
 20
-539.1036238195666
 30
0.0
 10
519.5716879607862
 20
-541.8433237503559
 30
0.0
 10
517.3507880168909
 20
-544.0642236942513
 30
0.0
 10
514.6110880861015
 20
-544.0642236942513
 30
0.0
 10
511.8713881553122
 20
-544.0642236942513
 30
0.0
 10
509.6503882114193
 20
-541.8433237503559
 30
0.0
 10
509.6503882114193
 20
-539.1036238195666
 30
0.0
 10
509.6503882114193
 20
-539.1036238195666
 30
0.0
 10
509.6503882114193
 20
-539.1036238195666
 30
0.0
 10
509.6503882114193
 20
-539.1036238195666
 30
0.0
  0
ENDBLK
  5
E8
330
E5
100
AcDbEntity
  8
0
100
AcDbBlockEnd
  0
BLOCK
  5
EC
330
EA
100
AcDbEntity
  8
0
100
AcDbBlockBegin
  2
block 22
 70
     0
 10
0.0
 20
0.0
 30
0.0
  3
block 22
  1

  0
SPLINE
  5
EE
330
EA
100
AcDbEntity
  8
Layer 1
 62
     7
370
    25
100
AcDbSpline
210
0.0
220
0.0
230
1.0
 70
    11
 71
     3
 72
    20
 73
    16
 74
     0
 42
0.0000000001
 43
0.0000000001
 12
1.0
 22
0.0
 32
0.0
 13
1.0
 23
0.0
 33
0.0
 40
0.0
 40
0.0
 40
0.0
 40
0.0
 40
1.0
 40
1.0
 40
1.0
 40
2.0
 40
2.0
 40
2.0
 40
3.0
 40
3.0
 40
3.0
 40
4.0
 40
4.0
 40
4.0
 40
5.0
 40
5.0
 40
5.0
 40
5.0
 10
787.290381197643
 20
-467.2093000000004
 30
0.0
 10
787.290381197643
 20
-464.4696000000004
 30
0.0
 10
789.5113811415358
 20
-462.2485999999999
 30
0.0
 10
792.2510000000002
 20
-462.2485999999999
 30
0.0
 10
794.9906810031171
 20
-462.2485999999999
 30
0.0
 10
797.2116809470099
 20
-464.4696000000004
 30
0.0
 10
797.2116809470099
 20
-467.2093000000004
 30
0.0
 10
797.2116809470099
 20
-469.9490000000005
 30
0.0
 10
794.9906810031171
 20
-472.1698999999999
 30
0.0
 10
792.2510000000002
 20
-472.1698999999999
 30
0.0
 10
789.5113811415358
 20
-472.1698999999999
 30
0.0
 10
787.290381197643
 20
-469.9490000000005
 30
0.0
 10
787.290381197643
 20
-467.2093000000004
 30
0.0
 10
787.290381197643
 20
-467.2093000000004
 30
0.0
 10
787.290381197643
 20
-467.2093000000004
 30
0.0
 10
787.290381197643
 20
-467.2093000000004
 30
0.0
  0
ENDBLK
  5
ED
330
EA
100
AcDbEntity
  8
0
100
AcDbBlockEnd
  0
BLOCK
  5
F1
330
EF
100
AcDbEntity
  8
0
100
AcDbBlockBegin
  2
block 23
 70
     0
 10
0.0
 20
0.0
 30
0.0
  3
block 23
  1

  0
SPLINE
  5
F3
330
EF
100
AcDbEntity
  8
Layer 1
 62
     7
370
    25
100
AcDbSpline
210
0.0
220
0.0
230
1.0
 70
    11
 71
     3
 72
    20
 73
    16
 74
     0
 42
0.0000000001
 43
0.0000000001
 12
1.0
 22
0.0
 32
0.0
 13
1.0
 23
0.0
 33
0.0
 40
0.0
 40
0.0
 40
0.0
 40
0.0
 40
1.0
 40
1.0
 40
1.0
 40
2.0
 40
2.0
 40
2.0
 40
3.0
 40
3.0
 40
3.0
 40
4.0
 40
4.0
 40
4.0
 40
5.0
 40
5.0
 40
5.0
 40
5.0
 10
1189.465700000001
 20
-467.1908000000003
 30
0.0
 10
1189.465700000001
 20
-464.4511000000002
 30
0.0
 10
1191.686600000001
 20
-462.2302
 30
0.0
 10
1194.426299999999
 20
-462.2302
 30
0.0
 10
1197.166000000001
 20
-462.2302
 30
0.0
 10
1199.3869
 20
-464.4511000000002
 30
0.0
 10
1199.3869
 20
-467.1908000000003
 30
0.0
 10
1199.3869
 20
-469.9305000000004
 30
0.0
 10
1197.166000000001
 20
-472.1513999999997
 30
0.0
 10
1194.426299999999
 20
-472.1513999999997
 30
0.0
 10
1191.686600000001
 20
-472.1513999999997
 30
0.0
 10
1189.465700000001
 20
-469.9305000000004
 30
0.0
 10
1189.465700000001
 20
-467.1908000000003
 30
0.0
 10
1189.465700000001
 20
-467.1908000000003
 30
0.0
 10
1189.465700000001
 20
-467.1908000000003
 30
0.0
 10
1189.465700000001
 20
-467.1908000000003
 30
0.0
  0
ENDBLK
  5
F2
330
EF
100
AcDbEntity
  8
0
100
AcDbBlockEnd
  0
BLOCK
  5
F6
330
F4
100
AcDbEntity
  8
0
100
AcDbBlockBegin
  2
block 24
 70
     0
 10
0.0
 20
0.0
 30
0.0
  3
block 24
  1

  0
SPLINE
  5
F8
330
F4
100
AcDbEntity
  8
Layer 1
 62
     7
370
    25
100
AcDbSpline
210
0.0
220
0.0
230
1.0
 70
    11
 71
     3
 72
    20
 73
    16
 74
     0
 42
0.0000000001
 43
0.0000000001
 12
1.0
 22
0.0
 32
0.0
 13
1.0
 23
0.0
 33
0.0
 40
0.0
 40
0.0
 40
0.0
 40
0.0
 40
1.0
 40
1.0
 40
1.0
 40
2.0
 40
2.0
 40
2.0
 40
3.0
 40
3.0
 40
3.0
 40
4.0
 40
4.0
 40
4.0
 40
5.0
 40
5.0
 40
5.0
 40
5.0
 10
1467.1271
 20
-539.085
 30
0.0
 10
1467.1271
 20
-536.3454238892446
 30
0.0
 10
1469.348
 20
-534.1244239453517
 30
0.0
 10
1472.0877
 20
-534.1244239453517
 30
0.0
 10
1474.8274
 20
-534.1244239453517
 30
0.0
 10
1477.0483
 20
-536.3454238892446
 30
0.0
 10
1477.0483
 20
-539.085
 30
0.0
 10
1477.0483
 20
-541.8247237508258
 30
0.0
 10
1474.8274
 20
-544.0457236947186
 30
0.0
 10
1472.0877
 20
-544.0457236947186
 30
0.0
 10
1469.348
 20
-544.0457236947186
 30
0.0
 10
1467.1271
 20
-541.8247237508258
 30
0.0
 10
1467.1271
 20
-539.085
 30
0.0
 10
1467.1271
 20
-539.085
 30
0.0
 10
1467.1271
 20
-539.085
 30
0.0
 10
1467.1271
 20
-539.085
 30
0.0
  0
ENDBLK
  5
F7
330
F4
100
AcDbEntity
  8
0
100
AcDbBlockEnd
  0
BLOCK
  5
FB
330
F9
100
AcDbEntity
  8
0
100
AcDbBlockBegin
  2
block 25
 70
     0
 10
0.0
 20
0.0
 30
0.0
  3
block 25
  1

  0
SPLINE
  5
FD
330
F9
100
AcDbEntity
  8
Layer 1
 62
     7
370
    25
100
AcDbSpline
210
0.0
220
0.0
230
1.0
 70
     8
 71
     3
 72
     8
 73
     4
 74
     0
 42
0.0000000001
 43
0.0000000001
 12
1.0
 22
0.0
 32
0.0
 13
1.0
 23
0.0
 33
0.0
 40
0.0
 40
0.0
 40
0.0
 40
0.0
 40
1.0
 40
1.0
 40
1.0
 40
1.0
 10
1539.7112
 20
-612.635821961987
 30
0.0
 10
1537.016800000001
 20
-610.9217220052888
 30
0.0
 10
1534.148799999999
 20
-609.4971220412772
 30
0.0
 10
1531.1551
 20
-608.3855220693586
 30
0.0
  0
ENDBLK
  5
FC
330
F9
100
AcDbEntity
  8
0
100
AcDbBlockEnd
  0
ENDSEC
  0
SECTION
  2
ENTITIES
  0
INSERT
  5
42
330
1F
100
AcDbEntity
  8
Layer 1
100
AcDbBlockReference
  2
block 2
 10
0.0
 20
0.0
 30
0.0
  0
INSERT
  5
9F
330
1F
100
AcDbEntity
  8
Layer 1
100
AcDbBlockReference
  2
block 9
 10
0.0
 20
0.0
 30
0.0
  0
INSERT
  5
D6
330
1F
100
AcDbEntity
  8
Layer 1
100
AcDbBlockReference
  2
block 19
 10
0.0
 20
0.0
 30
0.0
  0
INSERT
  5
DE
330
1F
100
AcDbEntity
  8
Layer 1
100
AcDbBlockReference
  2
block 20
 10
0.0
 20
0.0
 30
0.0
  0
INSERT
  5
E6
330
1F
100
AcDbEntity
  8
Layer 1
100
AcDbBlockReference
  2
block 21
 10
0.0
 20
0.0
 30
0.0
  0
INSERT
  5
EB
330
1F
100
AcDbEntity
  8
Layer 1
100
AcDbBlockReference
  2
block 22
 10
0.0
 20
0.0
 30
0.0
  0
INSERT
  5
F0
330
1F
100
AcDbEntity
  8
Layer 1
100
AcDbBlockReference
  2
block 23
 10
0.0
 20
0.0
 30
0.0
  0
INSERT
  5
F5
330
1F
100
AcDbEntity
  8
Layer 1
100
AcDbBlockReference
  2
block 24
 10
0.0
 20
0.0
 30
0.0
  0
INSERT
  5
FA
330
1F
100
AcDbEntity
  8
Layer 1
100
AcDbBlockReference
  2
block 25
 10
0.0
 20
0.0
 30
0.0
  0
SPLINE
  5
FE
330
1F
100
AcDbEntity
  8
Layer 1
 62
     7
370
    35
100
AcDbSpline
210
0.0
220
0.0
230
1.0
 70
    11
 71
     3
 72
    35
 73
    31
 74
     0
 42
0.0000000001
 43
0.0000000001
 12
1.0
 22
0.0
 32
0.0
 13
1.0
 23
0.0
 33
0.0
 40
0.0
 40
0.0
 40
0.0
 40
0.0
 40
1.0
 40
1.0
 40
1.0
 40
2.0
 40
2.0
 40
2.0
 40
3.0
 40
3.0
 40
3.0
 40
4.0
 40
4.0
 40
4.0
 40
5.0
 40
5.0
 40
5.0
 40
6.0
 40
6.0
 40
6.0
 40
7.0
 40
7.0
 40
7.0
 40
8.0
 40
8.0
 40
8.0
 40
9.0
 40
9.0
 40
9.0
 40
10.0
 40
10.0
 40
10.0
 40
10.0
 10
737.6227416992188
 20
-425.5763549804688
 30
0.0
 10
661.5257568359375
 20
-437.671875
 30
0.0
 10
590.9056396484375
 20
-455.8353881835938
 30
0.0
 10
529.8062133789062
 20
-481.4737548828125
 30
0.0
 10
476.6981201171875
 20
-503.7587890625
 30
0.0
 10
430.815185546875
 20
-531.7341918945312
 30
0.0
 10
393.817138671875
 20
-566.3331909179688
 30
0.0
 10
363.5585327148438
 20
-594.6298828125
 30
0.0
 10
339.2518005371094
 20
-627.40771484375
 30
0.0
 10
321.1638488769531
 20
-664.5087890625
 30
0.0
 10
309.6333923339844
 20
-688.1596069335938
 30
0.0
 10
299.8537139892578
 20
-716.5330810546875
 30
0.0
 10
293.2657623291016
 20
-743.3333129882812
 30
0.0
 10
293.2657623291016
 20
-743.3333129882812
 30
0.0
 10
290.4854202270508
 20
-755.3931884765625
 30
0.0
 10
290.4854202270508
 20
-755.3931884765625
 30
0.0
 10
290.4854202270508
 20
-755.3931884765625
 30
0.0
 10
293.2681312561035
 20
-743.5966796875
 30
0.0
 10
293.2681312561035
 20
-743.5966796875
 30
0.0
 10
356.017276763916
 20
-628.8306274414062
 30
0.0
 10
562.7577838897705
 20
-539.2310791015625
 30
0.0
 10
827.5780963897705
 20
-512.0661010742188
 30
0.0
 10
865.6542682647705
 20
-508.1602783203125
 30
0.0
 10
903.5
 20
-505.6505737304688
 30
0.0
 10
941.5
 20
-504.4492797851562
 30
0.0
 10
941.5
 20
-504.4492797851562
 30
0.0
 10
941.5
 20
-407.3463134765625
 30
0.0
 10
941.5
 20
-407.3463134765625
 30
0.0
 10
871.5
 20
-409.2967529296875
 30
0.0
 10
802.6982421875
 20
-415.2327880859375
 30
0.0
 10
737.6227416992188
 20
-425.5763549804688
 30
0.0
  0
SPLINE
  5
FF
330
1F
100
AcDbEntity
  8
Layer 1
 62
     7
370
    35
100
AcDbSpline
210
0.0
220
0.0
230
1.0
 70
    11
 71
     3
 72
    29
 73
    25
 74
     0
 42
0.0000000001
 43
0.0000000001
 12
1.0
 22
0.0
 32
0.0
 13
1.0
 23
0.0
 33
0.0
 40
0.0
 40
0.0
 40
0.0
 40
0.0
 40
1.0
 40
1.0
 40
1.0
 40
2.0
 40
2.0
 40
2.0
 40
3.0
 40
3.0
 40
3.0
 40
4.0
 40
4.0
 40
4.0
 40
5.0
 40
5.0
 40
5.0
 40
6.0
 40
6.0
 40
6.0
 40
7.0
 40
7.0
 40
7.0
 40
8.0
 40
8.0
 40
8.0
 40
8.0
 10
1693.659057617188
 20
-743.6776123046875
 30
0.0
 10
1693.284790039062
 20
-742.0972290039062
 30
0.0
 10
1692.793640136719
 20
-740.5219116210938
 30
0.0
 10
1692.402526855469
 20
-738.9514770507812
 30
0.0
 10
1682.024108886719
 20
-697.2760009765625
 30
0.0
 10
1665.655609130859
 20
-659.13330078125
 30
0.0
 10
1643.226165771484
 20
-625.4573364257812
 30
0.0
 10
1617.557708740234
 20
-586.9183959960938
 30
0.0
 10
1583.84587097168
 20
-554.1934814453125
 30
0.0
 10
1542.964157104492
 20
-526.9562377929688
 30
0.0
 10
1493.289962768555
 20
-493.8609008789062
 30
0.0
 10
1432.959251403809
 20
-468.7462768554688
 30
0.0
 10
1365.120506286621
 20
-450.1704711914062
 30
0.0
 10
1291.387596130371
 20
-429.980712890625
 30
0.0
 10
1209.017772674561
 20
-417.4541015625
 30
0.0
 10
1123.242259979248
 20
-411.232666015625
 30
0.0
 10
1097.483226776123
 20
-409.3643188476562
 30
0.0
 10
1071.5
 20
-408.0799560546875
 30
0.0
 10
1045.5
 20
-407.3470458984375
 30
0.0
 10
1045.5
 20
-407.3470458984375
 30
0.0
 10
1045.5
 20
-504.410400390625
 30
0.0
 10
1045.5
 20
-504.410400390625
 30
0.0
 10
1350.5
 20
-513.9071044921875
 30
0.0
 10
1619.447998046875
 20
-607.7866821289062
 30
0.0
 10
1693.659057617188
 20
-743.6776123046875
 30
0.0
  0
ENDSEC
  0
SECTION
  2
OBJECTS
  0
DICTIONARY
  5
C
330
0
100
AcDbDictionary
281
     1
  3
ACAD_GROUP
350
D
  3
ACAD_LAYOUT
350
1A
  3
ACAD_MATERIAL
350
3B
  3
ACAD_MLEADERSTYLE
350
101
  3
ACAD_MLINESTYLE
350
17
  3
ACAD_PLOTSETTINGS
350
19
  3
ACAD_PLOTSTYLENAME
350
E
  3
ACAD_TABLESTYLE
350
100
  3
ACAD_VISUALSTYLE
350
2A
  0
SUN
  5
3F
330
29
100
AcDbSun
 90
        1
290
     0
 63
     7
421
 16777215
 40
1.0
291
     1
 91
  2455826
 92
 54000000
292
     0
 70
     2
 71
   256
280
     1
  0
DICTIONARY
  5
D
102
{ACAD_REACTORS
330
C
102
}
330
C
100
AcDbDictionary
281
     1
  0
DICTIONARY
  5
1A
102
{ACAD_REACTORS
330
C
102
}
330
C
100
AcDbDictionary
281
     1
  3
Layout1
350
1E
  3
Layout2
350
26
  3
Model
350
22
  0
DICTIONARY
  5
3B
102
{ACAD_REACTORS
330
C
102
}
330
C
100
AcDbDictionary
281
     1
  3
ByBlock
350
3D
  3
ByLayer
350
3C
  3
Global
350
3E
  0
DICTIONARY
  5
101
102
{ACAD_REACTORS
330
C
102
}
330
C
100
AcDbDictionary
281
     1
  0
DICTIONARY
  5
17
102
{ACAD_REACTORS
330
C
102
}
330
C
100
AcDbDictionary
281
     1
  3
Standard
350
18
  0
DICTIONARY
  5
19
102
{ACAD_REACTORS
330
C
102
}
330
C
100
AcDbDictionary
281
     1
  0
ACDBDICTIONARYWDFLT
  5
E
102
{ACAD_REACTORS
330
C
102
}
330
C
100
AcDbDictionary
281
     1
  3
Normal
350
F
100
AcDbDictionaryWithDefault
340
F
  0
DICTIONARY
  5
100
102
{ACAD_REACTORS
330
C
102
}
330
C
100
AcDbDictionary
281
     1
  0
DICTIONARY
  5
2A
102
{ACAD_REACTORS
330
C
102
}
330
C
100
AcDbDictionary
281
     1
  3
2dWireframe
350
2F
  3
3D Hidden
350
31
  3
3dWireframe
350
30
  3
Basic
350
32
  3
Brighten
350
36
  3
ColorChange
350
3A
  3
Conceptual
350
34
  3
Dim
350
35
  3
Facepattern
350
39
  3
Flat
350
2B
  3
FlatWithEdges
350
2C
  3
Gouraud
350
2D
  3
GouraudWithEdges
350
2E
  3
Linepattern
350
38
  3
Realistic
350
33
  3
Thicken
350
37
  0
LAYOUT
  5
1E
102
{ACAD_REACTORS
330
1A
102
}
330
1A
100
AcDbPlotSettings
  1

  2
none_device
  4

  6

 40
0.0
 41
0.0
 42
0.0
 43
0.0
 44
0.0
 45
0.0
 46
0.0
 47
0.0
 48
0.0
 49
0.0
140
0.0
141
0.0
142
1.0
143
1.0
 70
   688
 72
     0
 73
     0
 74
     5
  7

 75
    16
 76
     0
 77
     2
 78
   300
147
1.0
148
0.0
149
0.0
100
AcDbLayout
  1
Layout1
 70
     1
 71
     1
 10
0.0
 20
0.0
 11
12.0
 21
9.0
 12
0.0
 22
0.0
 32
0.0
 14
1.000000000000000E+20
 24
1.000000000000000E+20
 34
1.000000000000000E+20
 15
-1.000000000000000E+20
 25
-1.000000000000000E+20
 35
-1.000000000000000E+20
146
0.0
 13
0.0
 23
0.0
 33
0.0
 16
1.0
 26
0.0
 36
0.0
 17
0.0
 27
1.0
 37
0.0
 76
     0
330
1B
  0
LAYOUT
  5
26
102
{ACAD_REACTORS
330
1A
102
}
330
1A
100
AcDbPlotSettings
  1

  2
none_device
  4

  6

 40
0.0
 41
0.0
 42
0.0
 43
0.0
 44
0.0
 45
0.0
 46
0.0
 47
0.0
 48
0.0
 49
0.0
140
0.0
141
0.0
142
1.0
143
1.0
 70
   688
 72
     0
 73
     0
 74
     5
  7

 75
    16
 76
     0
 77
     2
 78
   300
147
1.0
148
0.0
149
0.0
100
AcDbLayout
  1
Layout2
 70
     1
 71
     2
 10
0.0
 20
0.0
 11
0.0
 21
0.0
 12
0.0
 22
0.0
 32
0.0
 14
0.0
 24
0.0
 34
0.0
 15
0.0
 25
0.0
 35
0.0
146
0.0
 13
0.0
 23
0.0
 33
0.0
 16
1.0
 26
0.0
 36
0.0
 17
0.0
 27
1.0
 37
0.0
 76
     0
330
23
  0
LAYOUT
  5
22
102
{ACAD_REACTORS
330
1A
102
}
330
1A
100
AcDbPlotSettings
  1

  2
none_device
  4

  6

 40
0.0
 41
0.0
 42
0.0
 43
0.0
 44
0.0
 45
0.0
 46
0.0
 47
0.0
 48
0.0
 49
0.0
140
0.0
141
0.0
142
1.0
143
1.0
 70
  1712
 72
     0
 73
     0
 74
     0
  7

 75
     0
 76
     0
 77
     2
 78
   300
147
1.0
148
0.0
149
0.0
100
AcDbLayout
  1
Model
 70
     1
 71
     0
 10
0.0
 20
0.0
 11
12.0
 21
9.0
 12
0.0
 22
0.0
 32
0.0
 14
1.000000000000000E+20
 24
1.000000000000000E+20
 34
1.000000000000000E+20
 15
-1.000000000000000E+20
 25
-1.000000000000000E+20
 35
-1.000000000000000E+20
146
0.0
 13
0.0
 23
0.0
 33
0.0
 16
1.0
 26
0.0
 36
0.0
 17
0.0
 27
1.0
 37
0.0
 76
     0
330
1F
331
29
  0
MATERIAL
  5
3D
102
{ACAD_REACTORS
330
3B
102
}
330
3B
100
AcDbMaterial
  1
ByBlock
 72
     1
 94
      127
  0
MATERIAL
  5
3C
102
{ACAD_REACTORS
330
3B
102
}
330
3B
100
AcDbMaterial
  1
ByLayer
 72
     1
 94
      127
  0
MATERIAL
  5
3E
102
{ACAD_REACTORS
330
3B
102
}
330
3B
100
AcDbMaterial
  1
Global
 72
     1
 94
      127
  0
MLINESTYLE
  5
18
102
{ACAD_REACTORS
330
17
102
}
330
17
100
AcDbMlineStyle
  2
Standard
 70
     0
  3

 62
   256
 51
90.0
 52
90.0
 71
     2
 49
0.5
 62
   256
  6
BYLAYER
 49
-0.5
 62
   256
  6
BYLAYER
  0
ACDBPLACEHOLDER
  5
F
102
{ACAD_REACTORS
330
E
102
}
330
E
  0
VISUALSTYLE
  5
2F
102
{ACAD_REACTORS
330
2A
102
}
330
2A
100
AcDbVisualStyle
  2
2dWireframe
 70
     4
177
     2
291
     0
 71
     0
176
     1
 72
     2
176
     1
 73
     0
176
     1
 90
        0
176
     1
 40
-0.6
176
     1
 41
-30.0
176
     1
 62
     5
 63
     7
421
 16777215
176
     1
 74
     1
176
     1
 91
        4
176
     1
 64
     7
176
     1
 65
   257
176
     1
 75
     1
176
     1
175
     1
176
     1
 42
1.0
176
     1
 92
        0
176
     1
 66
   257
176
     1
 43
1.0
176
     1
 76
     1
176
     1
 77
     6
176
     1
 78
     2
176
     1
 67
     7
176
     1
 79
     5
176
     1
170
     0
176
     1
171
     0
176
     1
290
     0
176
     1
 93
        1
176
     1
 44
0.0
176
     1
173
     0
176
     1
  0
VISUALSTYLE
  5
31
102
{ACAD_REACTORS
330
2A
102
}
330
2A
100
AcDbVisualStyle
  2
3D Hidden
 70
     6
177
     2
291
     0
 71
     1
176
     1
 72
     2
176
     1
 73
     2
176
     1
 90
        0
176
     1
 40
-0.6
176
     1
 41
-30.0
176
     1
 62
     5
 63
     7
421
 16777215
176
     1
 74
     2
176
     1
 91
        2
176
     1
 64
     7
176
     1
 65
   257
176
     1
 75
     2
176
     1
175
     1
176
     1
 42
40.0
176
     1
 92
        0
176
     1
 66
   257
176
     1
 43
1.0
176
     1
 76
     1
176
     1
 77
     6
176
     1
 78
     2
176
     1
 67
     7
176
     1
 79
     3
176
     1
170
     0
176
     1
171
     0
176
     1
290
     0
176
     1
 93
        1
176
     1
 44
0.0
176
     1
173
     0
176
     1
  0
VISUALSTYLE
  5
30
102
{ACAD_REACTORS
330
2A
102
}
330
2A
100
AcDbVisualStyle
  2
3dWireframe
 70
     5
177
     2
291
     0
 71
     0
176
     1
 72
     2
176
     1
 73
     0
176
     1
 90
        0
176
     1
 40
-0.6
176
     1
 41
-30.0
176
     1
 62
     5
 63
     7
421
 16777215
176
     1
 74
     1
176
     1
 91
        4
176
     1
 64
     7
176
     1
 65
   257
176
     1
 75
     1
176
     1
175
     1
176
     1
 42
1.0
176
     1
 92
        0
176
     1
 66
   257
176
     1
 43
1.0
176
     1
 76
     1
176
     1
 77
     6
176
     1
 78
     2
176
     1
 67
     7
176
     1
 79
     5
176
     1
170
     0
176
     1
171
     0
176
     1
290
     0
176
     1
 93
        1
176
     1
 44
0.0
176
     1
173
     0
176
     1
  0
VISUALSTYLE
  5
32
102
{ACAD_REACTORS
330
2A
102
}
330
2A
100
AcDbVisualStyle
  2
Basic
 70
     7
177
     2
291
     1
 71
     1
176
     1
 72
     0
176
     1
 73
     1
176
     1
 90
        0
176
     1
 40
-0.6
176
     1
 41
-30.0
176
     1
 62
     5
 63
     7
421
 16777215
176
     1
 74
     0
176
     1
 91
        4
176
     1
 64
     7
176
     1
 65
   257
176
     1
 75
     1
176
     1
175
     1
176
     1
 42
1.0
176
     1
 92
        8
176
     1
 66
     7
176
     1
 43
1.0
176
     1
 76
     1
176
     1
 77
     6
176
     1
 78
     2
176
     1
 67
     7
176
     1
 79
     5
176
     1
170
     0
176
     1
171
     0
176
     1
290
     0
176
     1
 93
        1
176
     1
 44
0.0
176
     1
173
     0
176
     1
  0
VISUALSTYLE
  5
36
102
{ACAD_REACTORS
330
2A
102
}
330
2A
100
AcDbVisualStyle
  2
Brighten
 70
    12
177
     2
291
     1
 71
     2
176
     1
 72
     2
176
     1
 73
     0
176
     1
 90
        0
176
     1
 40
-0.6
176
     1
 41
-30.0
176
     1
 62
     5
 63
     7
421
 16777215
176
     1
 74
     1
176
     1
 91
        4
176
     1
 64
     7
176
     1
 65
   257
176
     1
 75
     1
176
     1
175
     1
176
     1
 42
1.0
176
     1
 92
        8
176
     1
 66
     7
176
     1
 43
1.0
176
     1
 76
     1
176
     1
 77
     6
176
     1
 78
     2
176
     1
 67
     7
176
     1
 79
     5
176
     1
170
     0
176
     1
171
     0
176
     1
290
     0
176
     1
 93
        1
176
     1
 44
50.0
176
     1
173
     0
176
     1
  0
VISUALSTYLE
  5
3A
102
{ACAD_REACTORS
330
2A
102
}
330
2A
100
AcDbVisualStyle
  2
ColorChange
 70
    16
177
     2
291
     1
 71
     2
176
     1
 72
     2
176
     1
 73
     3
176
     1
 90
        0
176
     1
 40
-0.6
176
     1
 41
-30.0
176
     1
 62
     5
 63
     8
421
  8421504
176
     1
 74
     1
176
     1
 91
        4
176
     1
 64
     7
176
     1
 65
   257
176
     1
 75
     1
176
     1
175
     1
176
     1
 42
1.0
176
     1
 92
        8
176
     1
 66
     8
424
  8421504
176
     1
 43
1.0
176
     1
 76
     1
176
     1
 77
     6
176
     1
 78
     2
176
     1
 67
     7
176
     1
 79
     5
176
     1
170
     0
176
     1
171
     0
176
     1
290
     0
176
     1
 93
        1
176
     1
 44
0.0
176
     1
173
     0
176
     1
  0
VISUALSTYLE
  5
34
102
{ACAD_REACTORS
330
2A
102
}
330
2A
100
AcDbVisualStyle
  2
Conceptual
 70
     9
177
     2
291
     0
 71
     3
176
     1
 72
     2
176
     1
 73
     0
176
     1
 90
        0
176
     1
 40
-0.6
176
     1
 41
-30.0
176
     1
 62
     5
 63
     7
421
 16777215
176
     1
 74
     2
176
     1
 91
        2
176
     1
 64
     7
176
     1
 65
   257
176
     1
 75
     1
176
     1
175
     1
176
     1
 42
40.0
176
     1
 92
        8
176
     1
 66
     7
176
     1
 43
1.0
176
     1
 76
     1
176
     1
 77
     6
176
     1
 78
     2
176
     1
 67
     7
176
     1
 79
     3
176
     1
170
     0
176
     1
171
     0
176
     1
290
     0
176
     1
 93
        1
176
     1
 44
0.0
176
     1
173
     0
176
     1
  0
VISUALSTYLE
  5
35
102
{ACAD_REACTORS
330
2A
102
}
330
2A
100
AcDbVisualStyle
  2
Dim
 70
    11
177
     2
291
     1
 71
     2
176
     1
 72
     2
176
     1
 73
     0
176
     1
 90
        0
176
     1
 40
-0.6
176
     1
 41
-30.0
176
     1
 62
     5
 63
     7
421
 16777215
176
     1
 74
     1
176
     1
 91
        4
176
     1
 64
     7
176
     1
 65
   257
176
     1
 75
     1
176
     1
175
     1
176
     1
 42
1.0
176
     1
 92
        8
176
     1
 66
     7
176
     1
 43
1.0
176
     1
 76
     1
176
     1
 77
     6
176
     1
 78
     2
176
     1
 67
     7
176
     1
 79
     5
176
     1
170
     0
176
     1
171
     0
176
     1
290
     0
176
     1
 93
        1
176
     1
 44
-50.0
176
     1
173
     0
176
     1
  0
VISUALSTYLE
  5
39
102
{ACAD_REACTORS
330
2A
102
}
330
2A
100
AcDbVisualStyle
  2
Facepattern
 70
    15
177
     2
291
     1
 71
     2
176
     1
 72
     2
176
     1
 73
     0
176
     1
 90
        0
176
     1
 40
-0.6
176
     1
 41
-30.0
176
     1
 62
     5
 63
     7
421
 16777215
176
     1
 74
     1
176
     1
 91
        4
176
     1
 64
     7
176
     1
 65
   257
176
     1
 75
     1
176
     1
175
     1
176
     1
 42
1.0
176
     1
 92
        8
176
     1
 66
     7
176
     1
 43
1.0
176
     1
 76
     1
176
     1
 77
     6
176
     1
 78
     2
176
     1
 67
     7
176
     1
 79
     5
176
     1
170
     0
176
     1
171
     0
176
     1
290
     0
176
     1
 93
        1
176
     1
 44
0.0
176
     1
173
     0
176
     1
  0
VISUALSTYLE
  5
2B
102
{ACAD_REACTORS
330
2A
102
}
330
2A
100
AcDbVisualStyle
  2
Flat
 70
     0
177
     2
291
     1
 71
     2
176
     1
 72
     1
176
     1
 73
     1
176
     1
 90
        2
176
     1
 40
-0.6
176
     1
 41
30.0
176
     1
 62
     5
 63
     7
421
 16777215
176
     1
 74
     0
176
     1
 91
        4
176
     1
 64
     7
176
     1
 65
   257
176
     1
 75
     1
176
     1
175
     1
176
     1
 42
1.0
176
     1
 92
        8
176
     1
 66
     7
176
     1
 43
1.0
176
     1
 76
     1
176
     1
 77
     6
176
     1
 78
     2
176
     1
 67
     7
176
     1
 79
     5
176
     1
170
     0
176
     1
171
     0
176
     1
290
     0
176
     1
 93
       13
176
     1
 44
0.0
176
     1
173
     0
176
     1
  0
VISUALSTYLE
  5
2C
102
{ACAD_REACTORS
330
2A
102
}
330
2A
100
AcDbVisualStyle
  2
FlatWithEdges
 70
     1
177
     2
291
     1
 71
     2
176
     1
 72
     1
176
     1
 73
     1
176
     1
 90
        2
176
     1
 40
-0.6
176
     1
 41
30.0
176
     1
 62
     5
 63
     7
421
 16777215
176
     1
 74
     1
176
     1
 91
        4
176
     1
 64
     7
176
     1
 65
   257
176
     1
 75
     1
176
     1
175
     1
176
     1
 42
1.0
176
     1
 92
        0
176
     1
 66
   257
176
     1
 43
1.0
176
     1
 76
     1
176
     1
 77
     6
176
     1
 78
     2
176
     1
 67
     7
176
     1
 79
     5
176
     1
170
     0
176
     1
171
     0
176
     1
290
     0
176
     1
 93
       13
176
     1
 44
0.0
176
     1
173
     0
176
     1
  0
VISUALSTYLE
  5
2D
102
{ACAD_REACTORS
330
2A
102
}
330
2A
100
AcDbVisualStyle
  2
Gouraud
 70
     2
177
     2
291
     1
 71
     2
176
     1
 72
     2
176
     1
 73
     1
176
     1
 90
        2
176
     1
 40
-0.6
176
     1
 41
30.0
176
     1
 62
     5
 63
     7
421
 16777215
176
     1
 74
     0
176
     1
 91
        4
176
     1
 64
     7
176
     1
 65
   257
176
     1
 75
     1
176
     1
175
     1
176
     1
 42
1.0
176
     1
 92
        0
176
     1
 66
     7
176
     1
 43
1.0
176
     1
 76
     1
176
     1
 77
     6
176
     1
 78
     2
176
     1
 67
     7
176
     1
 79
     5
176
     1
170
     0
176
     1
171
     0
176
     1
290
     0
176
     1
 93
       13
176
     1
 44
0.0
176
     1
173
     0
176
     1
  0
VISUALSTYLE
  5
2E
102
{ACAD_REACTORS
330
2A
102
}
330
2A
100
AcDbVisualStyle
  2
GouraudWithEdges
 70
     3
177
     2
291
     1
 71
     2
176
     1
 72
     2
176
     1
 73
     1
176
     1
 90
        2
176
     1
 40
-0.6
176
     1
 41
30.0
176
     1
 62
     5
 63
     7
421
 16777215
176
     1
 74
     1
176
     1
 91
        4
176
     1
 64
     7
176
     1
 65
   257
176
     1
 75
     1
176
     1
175
     1
176
     1
 42
1.0
176
     1
 92
        0
176
     1
 66
   257
176
     1
 43
1.0
176
     1
 76
     1
176
     1
 77
     6
176
     1
 78
     2
176
     1
 67
     7
176
     1
 79
     5
176
     1
170
     0
176
     1
171
     0
176
     1
290
     0
176
     1
 93
       13
176
     1
 44
0.0
176
     1
173
     0
176
     1
  0
VISUALSTYLE
  5
38
102
{ACAD_REACTORS
330
2A
102
}
330
2A
100
AcDbVisualStyle
  2
Linepattern
 70
    14
177
     2
291
     1
 71
     2
176
     1
 72
     2
176
     1
 73
     0
176
     1
 90
        0
176
     1
 40
-0.6
176
     1
 41
-30.0
176
     1
 62
     5
 63
     7
421
 16777215
176
     1
 74
     1
176
     1
 91
        4
176
     1
 64
     7
176
     1
 65
   257
176
     1
 75
     7
176
     1
175
     7
176
     1
 42
1.0
176
     1
 92
        8
176
     1
 66
     7
176
     1
 43
1.0
176
     1
 76
     1
176
     1
 77
     6
176
     1
 78
     2
176
     1
 67
     7
176
     1
 79
     5
176
     1
170
     0
176
     1
171
     0
176
     1
290
     0
176
     1
 93
        1
176
     1
 44
0.0
176
     1
173
     0
176
     1
  0
VISUALSTYLE
  5
33
102
{ACAD_REACTORS
330
2A
102
}
330
2A
100
AcDbVisualStyle
  2
Realistic
 70
     8
177
     2
291
     0
 71
     2
176
     1
 72
     2
176
     1
 73
     0
176
     1
 90
        0
176
     1
 40
-0.6
176
     1
 41
-30.0
176
     1
 62
     5
 63
     7
421
 16777215
176
     1
 74
     1
176
     1
 91
        0
176
     1
 64
     7
176
     1
 65
   257
176
     1
 75
     1
176
     1
175
     1
176
     1
 42
1.0
176
     1
 92
        8
176
     1
 66
     8
424
  7895160
176
     1
 43
1.0
176
     1
 76
     1
176
     1
 77
     6
176
     1
 78
     2
176
     1
 67
     7
176
     1
 79
     5
176
     1
170
     0
176
     1
171
     0
176
     1
290
     0
176
     1
 93
       13
176
     1
 44
0.0
176
     1
173
     0
176
     1
  0
VISUALSTYLE
  5
37
102
{ACAD_REACTORS
330
2A
102
}
330
2A
100
AcDbVisualStyle
  2
Thicken
 70
    13
177
     2
291
     1
 71
     2
176
     1
 72
     2
176
     1
 73
     0
176
     1
 90
        0
176
     1
 40
-0.6
176
     1
 41
-30.0
176
     1
 62
     5
 63
     7
421
 16777215
176
     1
 74
     1
176
     1
 91
        4
176
     1
 64
     7
176
     1
 65
   257
176
     1
 75
     1
176
     1
175
     1
176
     1
 42
1.0
176
     1
 92
       12
176
     1
 66
     7
176
     1
 43
1.0
176
     1
 76
     1
176
     1
 77
     6
176
     1
 78
     2
176
     1
 67
     7
176
     1
 79
     5
176
     1
170
     0
176
     1
171
     0
176
     1
290
     0
176
     1
 93
        1
176
     1
 44
0.0
176
     1
173
     0
176
     1
  0
ENDSEC
  0
EOF
